<?xml version="1.0" encoding="UTF-8" standalone="no"?>
<svg
   xmlns:dc="http://purl.org/dc/elements/1.1/"
   xmlns:cc="http://creativecommons.org/ns#"
   xmlns:rdf="http://www.w3.org/1999/02/22-rdf-syntax-ns#"
   xmlns:svg="http://www.w3.org/2000/svg"
   xmlns="http://www.w3.org/2000/svg"
   xmlns:sodipodi="http://sodipodi.sourceforge.net/DTD/sodipodi-0.dtd"
   xmlns:inkscape="http://www.inkscape.org/namespaces/inkscape"
   width="1217"
   height="842"
   style="width: 1217px; height: 842px;"
   id="svg2"
   version="1.1"
   inkscape:version="0.91 r13725"
   sodipodi:docname="ActivityObjectDiagram.svg">
  <metadata
     id="metadata426">
    <rdf:RDF>
      <cc:Work
         rdf:about="">
        <dc:format>image/svg+xml</dc:format>
        <dc:type
           rdf:resource="http://purl.org/dc/dcmitype/StillImage" />
      </cc:Work>
    </rdf:RDF>
  </metadata>
  <sodipodi:namedview
     pagecolor="#ffffff"
     bordercolor="#666666"
     borderopacity="1"
     objecttolerance="10"
     gridtolerance="10"
     guidetolerance="10"
     inkscape:pageopacity="0"
     inkscape:pageshadow="2"
     inkscape:window-width="1920"
     inkscape:window-height="1057"
     id="namedview424"
     showgrid="false"
     inkscape:zoom="1.1211401"
     inkscape:cx="546.22744"
     inkscape:cy="353.47735"
     inkscape:window-x="1272"
     inkscape:window-y="-8"
     inkscape:window-maximized="1"
     inkscape:current-layer="svg2" />
  <defs
     id="defs4">
    <filter
       id="drop-shadow">
      <feGaussianBlur
         in="SourceAlpha"
         result="blur-out"
         stdDeviation="2"
         id="feGaussianBlur7" />
      <feOffset
         in="blur-out"
         dx="2"
         dy="2"
         id="feOffset9"
         result="result1" />
      <feBlend
         in="SourceGraphic"
         mode="normal"
         id="feBlend11"
         in2="result1" />
    </filter>
    <linearGradient
       id="reflect"
       x1="0%"
       x2="0%"
       y1="50%"
       y2="0%"
       spreadMethod="reflect">
      <stop
         offset="0%"
         style="stop-color: rgb(170, 170, 170);"
         id="stop14" />
      <stop
         offset="100%"
         style="stop-color: rgb(238, 238, 238);"
         id="stop16" />
    </linearGradient>
    <linearGradient
       id="classelement"
       x1="0%"
       x2="100%"
       y1="100%"
       y2="0%">
      <stop
         offset="0"
         style="stop-color: rgb(255, 255, 255);"
         id="stop19" />
      <stop
         offset="1"
         style="stop-color: rgb(211, 211, 211);"
         id="stop21" />
    </linearGradient>
  </defs>
  <g
     id="g23">
    <rect
       width="144.984375"
       height="90"
       x="872"
       y="735"
       fill="#fff"
       class="draggable"
       stroke="#000"
       id="rect25" />
    <rect
       rx="0"
       x="872"
       y="735"
       width="144.984375"
       height="30"
       fill="none"
       style="fill:url(#classelement);"
       id="rect27" />
    <text
       x="886.6953125"
       y="755"
       width="115.59375"
       text-decoration="underline"
       id="text29">c6 : ControlFlow</text>
    <line
       x1="872"
       y1="765"
       x2="1016.984375"
       y2="765"
       stroke="#000"
       id="line31" />
    <text
       width="144.984375"
       x="882"
       y="785"
       id="text33">name=edge6</text>
    <text
       width="144.984375"
       x="882"
       y="805"
       id="text35">guardValue=false</text>
  </g>
  <g
     id="g37">
    <rect
       width="144.984375"
       height="90"
       x="315"
       y="726"
       fill="#fff"
       class="draggable"
       stroke="#000"
       id="rect39" />
    <rect
       rx="0"
       x="315"
       y="726"
       width="144.984375"
       height="30"
       fill="none"
       style="fill:url(#classelement);"
       id="rect41" />
    <text
       x="329.6953125"
       y="746"
       width="115.59375"
       text-decoration="underline"
       id="text43">c4 : ControlFlow</text>
    <line
       x1="315"
       y1="756"
       x2="459.984375"
       y2="756"
       stroke="#000"
       id="line45" />
    <text
       width="144.984375"
       x="325"
       y="776"
       id="text47">name=edge4</text>
    <text
       width="144.984375"
       x="325"
       y="796"
       id="text49">guardValue=false</text>
  </g>
  <g
     id="g51">
    <rect
       width="152.546875"
       height="115"
       x="588"
       y="717"
       fill="#fff"
       class="draggable"
       stroke="#000"
       id="rect53" />
    <rect
       rx="0"
       x="588"
       y="717"
       width="152.546875"
       height="30"
       fill="none"
       style="fill:url(#classelement);"
       id="rect55" />
    <text
       x="598"
       y="737"
       width="132.546875"
       text-decoration="underline"
       id="text57">o5 : OpaqueAction</text>
    <line
       x1="588"
       y1="747"
       x2="740.546875"
       y2="747"
       stroke="#000"
       id="line59" />
    <text
       width="152.546875"
       x="598"
       y="767"
       id="text61">running=true</text>
    <text
       width="152.546875"
       x="598"
       y="787"
       id="text63">noOfVisitors=0</text>
    <text
       width="152.546875"
       x="598"
       y="807"
       id="text65">name=action2</text>
  </g>
  <g
     id="g67">
    <rect
       width="143.1875"
       height="115"
       x="312"
       y="493"
       fill="#fff"
       class="draggable"
       stroke="#000"
       id="rect69" />
    <rect
       rx="0"
       x="312"
       y="493"
       width="143.1875"
       height="30"
       fill="none"
       style="fill:url(#classelement);"
       id="rect71" />
    <text
       x="335.125"
       y="513"
       width="96.9375"
       text-decoration="underline"
       id="text73">f3 : ForkNode</text>
    <line
       x1="312"
       y1="523"
       x2="455.1875"
       y2="523"
       stroke="#000"
       id="line75" />
    <text
       width="143.1875"
       x="322"
       y="543"
       id="text77">running=true</text>
    <text
       width="143.1875"
       x="322"
       y="563"
       id="text79">noOfVisitors=1</text>
    <text
       width="143.1875"
       x="322"
       y="583"
       id="text81">name=forkNode1</text>
  </g>
  <g
     id="g83">
    <rect
       width="141.421875"
       height="115"
       x="891"
       y="484"
       class="draggable"
       id="rect85"
       stroke="#000"
       fill="#fff" />
    <rect
       rx="0"
       x="891"
       y="484"
       width="141.421875"
       height="30"
       style="fill:url(#classelement);"
       id="rect87"
       fill="none" />
    <text
       x="915.015625"
       y="504"
       width="93.390625"
       text-decoration="underline"
       id="text89">j7 : JoinNode</text>
    <line
       x1="891"
       y1="514"
       x2="1032.421875"
       y2="514"
       id="line91"
       stroke="#000" />
    <text
       width="141.421875"
       x="901"
       y="534"
       id="text93">running=true</text>
    <text
       width="141.421875"
       x="901"
       y="554"
       id="text95">noOfVisitors=0</text>
    <text
       width="141.421875"
       x="901"
       y="574"
       id="text97">name=joinNode1</text>
  </g>
  <g
     id="g99">
    <rect
       width="144.984375"
       height="90"
       x="883"
       y="299"
       fill="#fff"
       class="draggable"
       stroke="#000"
       id="rect101" />
    <rect
       rx="0"
       x="883"
       y="299"
       width="144.984375"
       height="30"
       fill="none"
       style="fill:url(#classelement);"
       id="rect103" />
    <text
       x="893.2421875"
       y="319"
       width="124.5"
       text-decoration="underline"
       id="text105">c10 : ControlFlow</text>
    <line
       x1="883"
       y1="329"
       x2="1027.984375"
       y2="329"
       stroke="#000"
       id="line107" />
    <text
       width="144.984375"
       x="893"
       y="349"
       id="text109">name=edge7</text>
    <text
       width="144.984375"
       x="893"
       y="369"
       id="text111">guardValue=false</text>
  </g>
  <g
     id="g113">
    <rect
       width="144.984375"
       height="90"
       x="1057"
       y="297"
       fill="#fff"
       class="draggable"
       stroke="#000"
       id="rect115" />
    <rect
       rx="0"
       x="1057"
       y="297"
       width="144.984375"
       height="30"
       fill="none"
       style="fill:url(#classelement);"
       id="rect117" />
    <text
       x="1071.6953125"
       y="317"
       width="115.59375"
       text-decoration="underline"
       id="text119">c8 : ControlFlow</text>
    <line
       x1="1057"
       y1="327"
       x2="1201.984375"
       y2="327"
       stroke="#000"
       id="line121" />
    <text
       width="144.984375"
       x="1067"
       y="347"
       id="text123">name=edge8</text>
    <text
       width="144.984375"
       x="1067"
       y="367"
       id="text125">guardValue=false</text>
  </g>
  <g
     id="g127">
    <rect
       width="144.984375"
       height="90"
       x="143"
       y="295"
       fill="#fff"
       class="draggable"
       stroke="#000"
       id="rect129" />
    <rect
       rx="0"
       x="143"
       y="295"
       width="144.984375"
       height="30"
       fill="none"
       style="fill:url(#classelement);"
       id="rect131" />
    <text
       x="153.2421875"
       y="315"
       width="124.5"
       text-decoration="underline"
       id="text133">c13 : ControlFlow</text>
    <line
       x1="143"
       y1="325"
       x2="287.984375"
       y2="325"
       stroke="#000"
       id="line135" />
    <text
       width="144.984375"
       x="153"
       y="345"
       id="text137">name=edge3</text>
    <text
       width="144.984375"
       x="153"
       y="365"
       id="text139">guardValue=false</text>
  </g>
  <g
     id="g141">
    <rect
       width="174.734375"
       height="115"
       x="1032"
       y="98"
       fill="#fff"
       class="draggable"
       stroke="#000"
       id="rect143" />
    <rect
       rx="0"
       x="1032"
       y="98"
       width="174.734375"
       height="30"
       fill="none"
       style="fill:url(#classelement);"
       id="rect145" />
    <text
       x="1042"
       y="118"
       width="154.734375"
       text-decoration="underline"
       id="text147">a9 : ActivityFinalNode</text>
    <line
       x1="1032"
       y1="128"
       x2="1206.734375"
       y2="128"
       stroke="#000"
       id="line149" />
    <text
       width="174.734375"
       x="1042"
       y="148"
       id="text151">running=true</text>
    <text
       width="174.734375"
       x="1042"
       y="168"
       id="text153">name=finalNode2</text>
    <text
       width="174.734375"
       x="1042"
       y="188"
       id="text155">noOfVisitors=0</text>
  </g>
  <g
     id="g157">
    <rect
       width="152.984375"
       height="115"
       x="146"
       y="97"
       fill="#fff"
       class="draggable"
       stroke="#000"
       id="rect159" />
    <rect
       rx="0"
       x="146"
       y="97"
       width="152.984375"
       height="30"
       fill="none"
       style="fill:url(#classelement);"
       id="rect161" />
    <text
       x="167.34375"
       y="117"
       width="110.296875"
       text-decoration="underline"
       id="text163">i14 : InitialNode</text>
    <line
       x1="146"
       y1="127"
       x2="298.984375"
       y2="127"
       stroke="#000"
       id="line165" />
    <text
       width="152.984375"
       x="156"
       y="147"
       id="text167">running=true</text>
    <text
       width="152.984375"
       x="156"
       y="167"
       id="text169">noOfVisitors=0</text>
    <text
       width="152.984375"
       x="156"
       y="187"
       id="text171">name=initialNode2</text>
  </g>
  <g
     id="g173">
    <rect
       width="144.984375"
       height="90"
       x="325"
       y="297"
       fill="#fff"
       class="draggable"
       stroke="#000"
       id="rect175" />
    <rect
       rx="0"
       x="325"
       y="297"
       width="144.984375"
       height="30"
       fill="none"
       style="fill:url(#classelement);"
       id="rect177" />
    <text
       x="335.2421875"
       y="317"
       width="124.5"
       text-decoration="underline"
       id="text179">c12 : ControlFlow</text>
    <line
       x1="325"
       y1="327"
       x2="469.984375"
       y2="327"
       stroke="#000"
       id="line181" />
    <text
       width="144.984375"
       x="335"
       y="347"
       id="text183">name=edge5</text>
    <text
       width="144.984375"
       x="335"
       y="367"
       id="text185">guardValue=false</text>
  </g>
  <g
     id="g197">
    <rect
       width="161.4375"
       height="115"
       x="628"
       y="289"
       fill="#fff"
       class="draggable"
       stroke="#000"
       id="rect199" />
    <rect
       rx="0"
       x="628"
       y="289"
       width="161.4375"
       height="30"
       fill="none"
       style="fill:url(#classelement);"
       id="rect201" />
    <text
       x="638"
       y="309"
       width="141.4375"
       text-decoration="underline"
       id="text203">o11 : OpaqueAction</text>
    <line
       x1="628"
       y1="319"
       x2="789.4375"
       y2="319"
       stroke="#000"
       id="line205" />
    <text
       width="161.4375"
       x="638"
       y="339"
       id="text207">running=true</text>
    <text
       width="161.4375"
       x="638"
       y="359"
       id="text209">noOfVisitors=0</text>
    <text
       width="161.4375"
       x="638"
       y="379"
       id="text211">name=action3</text>
  </g>
  <g
     id="g213">
    <rect
       width="104.0625"
       height="65"
       x="575"
       y="7"
       fill="#fff"
       class="draggable"
       stroke="#000"
       id="rect215" />
    <rect
       rx="0"
       x="575"
       y="7"
       width="104.0625"
       height="30"
       fill="none"
       style="fill:url(#classelement);"
       id="rect217" />
    <text
       x="586.125"
       y="27"
       width="81.8125"
       text-decoration="underline"
       id="text219">a1 : Activity</text>
    <line
       x1="575"
       y1="37"
       x2="679.0625"
       y2="37"
       stroke="#000"
       id="line221" />
    <text
       width="104.0625"
       x="585"
       y="57"
       id="text223">name=test2</text>
  </g>
  <g
     id="g225">
    <rect
       width="96.484375"
       height="60"
       x="486"
       y="133"
       fill="#fff"
       class="draggable"
       stroke="#000"
       id="rect227" />
    <rect
       rx="0"
       x="486"
       y="133"
       width="96.484375"
       height="30"
       fill="none"
       style="fill:url(#classelement);"
       id="rect229" />
    <text
       x="496"
       y="153"
       width="76.484375"
       text-decoration="underline"
       id="text231">t15 : Trace</text>
    <line
       x1="486"
       y1="163"
       x2="582.484375"
       y2="163"
       stroke="#000"
       id="line233" />
  </g>
  <line
     x1="625"
     y1="72"
     x2="597"
     y2="518"
     stroke="#000"
     id="line235" />
  <text
     x="-515.37305"
     y="588.29883"
     id="T2 : Token"
     class="draggable"
     transform="matrix(-0.00848046,-0.99996404,0.99996404,-0.00848046,0,0)">token</text>
  <line
     x1="603"
     y1="72"
     x2="557"
     y2="133"
     stroke="#000"
     id="line239" />
  <text
     x="225.16705"
     y="532.08252"
     id="T15 : Trace"
     class="draggable"
     transform="matrix(0.5666846,-0.82393481,0.82393481,0.5666846,0,0)">trace</text>
  <line
     x1="575"
     y1="55"
     x2="299"
     y2="133"
     stroke="#000"
     id="line244" />
  <text
     x="483.86627"
     y="211.36324"
     id="text246"
     class="draggable"
     transform="matrix(0.95869291,-0.28444316,0.28444316,0.95869291,0,0)">activity</text>
  <text
     x="256.27707"
     y="208.50917"
     id="I14 : InitialNode"
     class="draggable"
     transform="matrix(0.95869291,-0.28444316,0.28444316,0.95869291,0,0)">nodes</text>
  <line
     x1="575"
     y1="55"
     x2="299"
     y2="133"
     stroke="#000"
     id="line249" />
  <text
     x="65.022636"
     y="-630.47363"
     id="text268"
     class="draggable"
     transform="matrix(-0.02060541,0.99978769,-0.99978769,-0.02060541,0,0)">activity</text>
  <text
     x="689"
     y="272"
     id="O11 : OpaqueAction"
     class="draggable"
     transform="rotate(78.57722257063618,689,272)">nodes</text>
  <line
     x1="679"
     y1="52"
     x2="1032"
     y2="135"
     stroke="#000"
     id="line299" />
  <text
     x="675.0993"
     y="-115.02113"
     id="text301"
     class="draggable"
     transform="matrix(0.97090082,0.23948194,-0.23948194,0.97090082,0,0)">activity</text>
  <text
     x="988"
     y="125"
     id="A9 : ActivityFinalNode"
     class="draggable"
     transform="rotate(13.855965848980837,988,125)">nodes</text>
  <line
     x1="679"
     y1="52"
     x2="1032"
     y2="135"
     stroke="#000"
     id="line304" />
  <text
     x="988"
     y="125"
     id="text308"
     class="draggable"
     transform="rotate(13.855965848980837,988,125)">nodes</text>
  <line
     x1="662"
     y1="72"
     x2="907"
     y2="299"
     stroke="#000"
     id="line330" />
  <text
     x="532.94189"
     y="-419.91992"
     id="text332"
     class="draggable"
     transform="matrix(0.70911725,0.70509058,-0.70509058,0.70911725,0,0)">activity</text>
  <text
     x="813.48761"
     y="-431.94498"
     id="C10 : ControlFlow"
     class="draggable"
     transform="matrix(0.70911725,0.70509058,-0.70509058,0.70911725,0,0)">edges</text>
  <line
     x1="679"
     y1="71"
     x2="1057"
     y2="298"
     stroke="#000"
     id="line335" />
  <text
     x="616.14813"
     y="-307.61584"
     id="text337"
     class="draggable"
     transform="matrix(0.84387399,0.53654142,-0.53654142,0.84387399,0,0)">activity</text>
  <text
     x="1001.5734"
     y="-321.8837"
     id="C8 : ControlFlow"
     class="draggable"
     transform="matrix(0.84387399,0.53654142,-0.53654142,0.84387399,0,0)">edges</text>
  <line
     x1="549"
     y1="549"
     x2="455"
     y2="550"
     stroke="#000"
     id="line340" />
  <text
     x="505.22028"
     y="551.98645"
     id="text342"
     class="draggable"
     transform="matrix(0.99993795,-0.01113975,0.01113975,0.99993795,0,0)">token</text>
  <text
     x="451.78271"
     y="571.56927"
     id="text344"
     class="draggable"
     transform="matrix(0.99993795,-0.01113975,0.01113975,0.99993795,0,0)">currentElements</text>
  <line
     x1="385"
     y1="608"
     x2="387"
     y2="726"
     stroke="#000"
     id="line346" />
  <text
     x="589.10297"
     y="-422.8743"
     id="text348"
     class="draggable"
     transform="matrix(-0.05636045,0.99841049,-0.99841049,-0.05636045,0,0)">source</text>
  <text
     x="645.8009"
     y="-411.56451"
     id="text350"
     class="draggable"
     transform="matrix(-0.05636045,0.99841049,-0.99841049,-0.05636045,0,0)">outgoing</text>
  <line
     x1="388"
     y1="493"
     x2="395"
     y2="387"
     stroke="#000"
     id="line352" />
  <text
     x="-489.98071"
     y="380.27048"
     id="text354"
     class="draggable"
     transform="matrix(-0.00508343,-0.99998708,0.99998708,-0.00508343,0,0)">source</text>
  <text
     x="-445.24942"
     y="403.44522"
     id="text356"
     class="draggable"
     transform="matrix(-0.00508343,-0.99998708,0.99998708,-0.00508343,0,0)">outgoing</text>
  <line
     x1="338"
     y1="493"
     x2="252"
     y2="385"
     stroke="#000"
     id="line358" />
  <text
     x="546.50116"
     y="31.198942"
     id="text360"
     class="draggable"
     transform="matrix(0.58920948,0.80798031,-0.80798031,0.58920948,0,0)">target</text>
  <text
     x="464.16217"
     y="34.32312"
     id="text362"
     class="draggable"
     transform="matrix(0.58920948,0.80798031,-0.80798031,0.58920948,0,0)">incoming</text>
  <line
     x1="460"
     y1="772"
     x2="588"
     y2="774"
     stroke="#000"
     id="line364" />
  <text
     x="475.1785"
     y="760.3139"
     id="text366"
     class="draggable"
     transform="matrix(0.99986616,0.0163604,-0.0163604,0.99986616,0,0)">incoming</text>
  <text
     x="560.2674"
     y="779.1012"
     id="text368"
     class="draggable"
     transform="matrix(0.99986616,0.0163604,-0.0163604,0.99986616,0,0)">target</text>
  <line
     x1="741"
     y1="776"
     x2="872"
     y2="779"
     stroke="#000"
     id="line370" />
  <text
     x="762.41638"
     y="753.92389"
     id="text372"
     class="draggable"
     transform="matrix(0.99971256,0.02397513,-0.02397513,0.99971256,0,0)">source</text>
  <text
     x="833.26105"
     y="751.10278"
     id="text374"
     class="draggable"
     transform="matrix(0.99971256,0.02397513,-0.02397513,0.99971256,0,0)">outgoing</text>
  <line
     x1="948"
     y1="735"
     x2="958"
     y2="599"
     stroke="#000"
     id="line376" />
  <text
     x="-726.57758"
     y="945.18488"
     id="text378"
     class="draggable"
     transform="matrix(0.00272376,-0.99999629,0.99999629,0.00272376,0,0)">incoming</text>
  <text
     x="-636.0484"
     y="971.33136"
     id="text380"
     class="draggable"
     transform="matrix(0.00272376,-0.99999629,0.99999629,0.00272376,0,0)">target</text>
  <line
     x1="1011"
     y1="484"
     x2="1092"
     y2="387"
     stroke="#000"
     id="line382" />
  <text
     x="246.07573"
     y="1109.8809"
     id="text384"
     class="draggable"
     transform="matrix(0.60872414,-0.79338195,0.79338195,0.60872414,0,0)">source</text>
  <text
     x="307.99017"
     y="1117.0332"
     id="text386"
     class="draggable"
     transform="matrix(0.60872414,-0.79338195,0.79338195,0.60872414,0,0)">outgoing</text>
  <line
     x1="960"
     y1="484"
     x2="957"
     y2="389"
     stroke="#000"
     id="line388" />
  <text
     x="403.66809"
     y="-964.01178"
     id="text390"
     class="draggable"
     transform="matrix(-0.04106778,0.99915636,-0.99915636,-0.04106778,0,0)">target</text>
  <text
     x="350.39539"
     y="-979.7981"
     id="text392"
     class="draggable"
     transform="matrix(-0.04106778,0.99915636,-0.99915636,-0.04106778,0,0)">incoming</text>
  <line
     x1="1128"
     y1="297"
     x2="1123"
     y2="213"
     stroke="#000"
     id="line394" />
  <text
     x="226.62337"
     y="-1115.9453"
     id="text396"
     class="draggable"
     transform="matrix(-0.01187773,0.99992946,-0.99992946,-0.01187773,0,0)">incoming</text>
  <text
     x="202.69902"
     y="-1131.285"
     id="text398"
     class="draggable"
     transform="matrix(-0.01187773,0.99992946,-0.99992946,-0.01187773,0,0)">target</text>
  <line
     x1="883"
     y1="345"
     x2="789"
     y2="346"
     stroke="#000"
     id="line400" />
  <text
     x="821.52313"
     y="367.66165"
     id="text402"
     class="draggable"
     transform="matrix(0.99993795,-0.01113975,0.01113975,0.99993795,0,0)">outgoing</text>
  <text
     x="788.25311"
     y="351.68094"
     id="text404"
     class="draggable"
     transform="matrix(0.99993795,-0.01113975,0.01113975,0.99993795,0,0)">source</text>
  <line
     x1="628"
     y1="346"
     x2="470"
     y2="343"
     stroke="#000"
     id="line406" />
  <text
     x="587"
     y="345"
     id="text408"
     class="draggable"
     transform="rotate(1.1391036299304245,587,345)">target</text>
  <text
     x="470"
     y="343"
     id="text410"
     class="draggable"
     transform="rotate(1.1391036299304245,470,343)">incoming</text>
  <line
     x1="218"
     y1="295"
     x2="221"
     y2="212"
     stroke="#000"
     id="line412" />
  <text
     x="-298.06268"
     y="203.30179"
     id="text414"
     class="draggable"
     transform="matrix(-0.03629572,-0.99934109,0.99934109,-0.03629572,0,0)">outgoing</text>
  <text
     x="-262.21271"
     y="223.67149"
     id="text416"
     class="draggable"
     transform="matrix(-0.03629572,-0.99934109,0.99934109,-0.03629572,0,0)">source</text>
  <line
     x1="486"
     y1="162"
     x2="299"
     y2="157"
     stroke="#000"
     id="line418" />
  <text
     x="450.21967"
     y="144.45512"
     id="text420"
     class="draggable"
     transform="matrix(0.99960821,0.02798961,-0.02798961,0.99960821,0,0)">trace</text>
  <text
     x="307.1637"
     y="144.45918"
     id="text422"
     class="draggable"
     transform="matrix(0.99960821,0.02798961,-0.02798961,0.99960821,0,0)">executedNodes.1</text>
  <g
     id="g187">
    <rect
       width="91.15625"
       height="60"
       x="549"
       y="518"
       fill="#fff"
       class="draggable"
       stroke="#000"
       id="rect189" />
    <rect
       rx="0"
       x="549"
       y="518"
       width="91.15625"
       height="30"
       fill="none"
       style="fill:url(#classelement);"
       id="rect191" />
    <text
       x="559"
       y="538"
       width="71.15625"
       text-decoration="underline"
       id="text193">t2 : Token</text>
    <line
       x1="549"
       y1="548"
       x2="640.15625"
       y2="548"
       stroke="#000"
       id="line195" />
  </g>
  <path
     style="fill:none;fill-rule:evenodd;stroke:#000000;stroke-width:1px;stroke-linecap:butt;stroke-linejoin:miter;stroke-opacity:1"
     d="m 527.89866,193.00631 1.89211,207.50138 -87.66776,92.71339 0,0 -0.6307,0"
     id="path3758"
     inkscape:connector-curvature="0" />
  <text
     x="-282.54648"
     y="551.59644"
     id="text422-2"
     class="draggable"
     transform="matrix(0.03667155,-0.99932737,0.99932737,0.03667155,0,0)">executedNodes.2</text>
  <text
     x="-268.17761"
     y="525.44257"
     id="text422-2-8"
     class="draggable"
     transform="matrix(0.01888839,-0.9998216,0.9998216,0.01888839,0,0)">&lt;&lt;create&gt;&gt;</text>
  <path
     style="fill:none;fill-rule:evenodd;stroke:#000000;stroke-width:1px;stroke-linecap:butt;stroke-linejoin:miter;stroke-opacity:1"
     d="M 573.94,517.1878 455.99848,387.26292"
     id="path3790"
     inkscape:connector-curvature="0" />
  <path
     style="fill:none;fill-rule:evenodd;stroke:#000000;stroke-width:1px;stroke-linecap:butt;stroke-linejoin:miter;stroke-opacity:1"
     d="M 578.35492,577.73532 443.38442,725.31989"
     id="path3792"
     inkscape:connector-curvature="0" />
  <text
     x="-201.81891"
     y="837.69409"
     id="text344-3"
     class="draggable"
     transform="matrix(0.68873503,-0.72501315,0.72501315,0.68873503,0,0)">currentElements</text>
  <text
     x="-203.86559"
     y="812.60651"
     id="text344-3-1"
     class="draggable"
     transform="matrix(0.68873503,-0.72501315,0.72501315,0.68873503,0,0)"
     inkscape:transform-center-x="-90.821274"
     inkscape:transform-center-y="-25.858835">&lt;&lt;create&gt;&gt;</text>
  <text
     x="608.43243"
     y="-50.131981"
     id="text344-3-1-4"
     class="draggable"
     transform="matrix(0.70956778,0.70463719,-0.70463719,0.70956778,0,0)"
     inkscape:transform-center-x="-23.839253"
     inkscape:transform-center-y="91.372183">&lt;&lt;create&gt;&gt;</text>
  <text
     x="590.79517"
     y="-56.214188"
     id="text344-3-7"
     class="draggable"
     transform="matrix(0.68138505,0.73192514,-0.73192514,0.68138505,0,0)">currentElements</text>
</svg>
