<?xml version="1.0" encoding="UTF-8" standalone="no"?>
<!-- Generated by graphviz version 2.28.0 (20110507.0327)
 -->

<!-- Title: ClassDiagram Pages: 1 -->

<svg
   xmlns:dc="http://purl.org/dc/elements/1.1/"
   xmlns:cc="http://creativecommons.org/ns#"
   xmlns:rdf="http://www.w3.org/1999/02/22-rdf-syntax-ns#"
   xmlns:svg="http://www.w3.org/2000/svg"
   xmlns="http://www.w3.org/2000/svg"
   xmlns:xlink="http://www.w3.org/1999/xlink"
   xmlns:sodipodi="http://sodipodi.sourceforge.net/DTD/sodipodi-0.dtd"
   xmlns:inkscape="http://www.inkscape.org/namespaces/inkscape"
   width="595pt"
   height="580pt"
   viewBox="0.00 0.00 595.00 580.00"
   id="svg4007"
   version="1.1"
   inkscape:version="0.47 r22583"
   sodipodi:docname="LoadEcoreClassDiagram1.svg">
  <metadata
     id="metadata4338">
    <rdf:RDF>
      <cc:Work
         rdf:about="">
        <dc:format>image/svg+xml</dc:format>
        <dc:type
           rdf:resource="http://purl.org/dc/dcmitype/StillImage" />
        <dc:title></dc:title>
      </cc:Work>
    </rdf:RDF>
  </metadata>
  <defs
     id="defs4336">
    <inkscape:perspective
       sodipodi:type="inkscape:persp3d"
       inkscape:vp_x="0 : 362.5 : 1"
       inkscape:vp_y="0 : 1000 : 0"
       inkscape:vp_z="743.75 : 362.5 : 1"
       inkscape:persp3d-origin="371.875 : 241.66667 : 1"
       id="perspective4340" />
  </defs>
  <sodipodi:namedview
     pagecolor="#ffffff"
     bordercolor="#666666"
     borderopacity="1"
     objecttolerance="10"
     gridtolerance="10"
     guidetolerance="10"
     inkscape:pageopacity="0"
     inkscape:pageshadow="2"
     inkscape:window-width="1280"
     inkscape:window-height="779"
     id="namedview4334"
     showgrid="false"
     inkscape:zoom="0.81"
     inkscape:cx="371.875"
     inkscape:cy="355.67544"
     inkscape:window-x="-8"
     inkscape:window-y="-8"
     inkscape:window-maximized="1"
     inkscape:current-layer="svg4007" />
  <g
     class="node"
     id="node1"
     transform="translate(4,576)">
    <title
       id="title4015">_Person</title>
    <a
       xlink:href="../src/de/kassel/ttc2014/moviedb/model/Person.java"
       xlink:title="&lt;TABLE&gt;"
       id="a4017">
      <polygon
         style="fill:none;stroke:#000000"
         id="polygon4019"
         points="183,-307 183,-290 122,-290 122,-290 122,-307 " />
      <text
         style="font-size:10px;text-anchor:start;font-family:'Times New Roman,serif'"
         id="text4021"
         font-size="10.00"
         y="-296.5"
         x="138.5">Person</text>
    </a>
    <polygon
       style="fill:none;stroke:#000000"
       id="polygon4023"
       points="183,-290 183,-270 122,-270 122,-270 122,-290 " />
    <text
       style="font-size:10px;text-anchor:start;font-family:'Times New Roman,serif'"
       id="text4025"
       font-size="10.00"
       y="-278"
       x="127">name :String</text>
    <polygon
       style="fill:none;stroke:#000000"
       id="polygon4027"
       points="183,-270 183,-250 122,-250 122,-250 122,-270 " />
    <text
       style="font-size:10px;text-anchor:start;font-family:'Times New Roman,serif'"
       id="text4029"
       font-size="10.00"
       y="-258"
       x="151" />
  </g>
  <g
     class="node"
     id="node2"
     transform="translate(4,576)">
    <title
       id="title4032">_Actor</title>
    <a
       xlink:href="../src/de/kassel/ttc2014/moviedb/model/Actor.java"
       xlink:title="&lt;TABLE&gt;"
       id="a4034">
      <polygon
         style="fill:none;stroke:#000000"
         id="polygon4036"
         points="171,-184 171,-167 140,-167 140,-167 140,-184 " />
      <text
         style="font-size:10px;text-anchor:start;font-family:'Times New Roman,serif'"
         id="text4038"
         font-size="10.00"
         y="-173.5"
         x="143.5">Actor</text>
    </a>
    <polygon
       style="fill:none;stroke:#000000"
       id="polygon4040"
       points="171,-167 171,-147 140,-147 140,-147 140,-167 " />
    <text
       style="font-size:10px;text-anchor:start;font-family:'Times New Roman,serif'"
       id="text4042"
       font-size="10.00"
       y="-155"
       x="154" />
    <polygon
       style="fill:none;stroke:#000000"
       id="polygon4044"
       points="171,-147 171,-127 140,-127 140,-127 140,-147 " />
    <text
       style="font-size:10px;text-anchor:start;font-family:'Times New Roman,serif'"
       id="text4046"
       font-size="10.00"
       y="-135"
       x="154" />
  </g>
  <g
     class="edge"
     id="edge2"
     transform="translate(4,576)">
    <title
       id="title4049">_Person-&gt;_Actor</title>
    <path
       style="fill:none;stroke:#000000"
       id="path4051"
       d="m 153.046,-235.807 c 0.385,15.516 0.813,32.806 1.171,47.228" />
    <polygon
       style="fill:none;stroke:#000000"
       id="polygon4053"
       points="156.535,-236.299 149.537,-236.125 149.537,-236.125 152.788,-246.209 " />
  </g>
  <g
     class="node"
     id="node3"
     transform="translate(4,576)">
    <title
       id="title4056">_Actress</title>
    <a
       xlink:href="../src/de/kassel/ttc2014/moviedb/model/Actress.java"
       xlink:title="&lt;TABLE&gt;"
       id="a4058">
      <polygon
         style="fill:none;stroke:#000000"
         id="polygon4060"
         points="248,-184 248,-167 209,-167 209,-167 209,-184 " />
      <text
         style="font-size:10px;text-anchor:start;font-family:'Times New Roman,serif'"
         id="text4062"
         font-size="10.00"
         y="-173.5"
         x="212.5">Actress</text>
    </a>
    <polygon
       style="fill:none;stroke:#000000"
       id="polygon4064"
       points="248,-167 248,-147 209,-147 209,-147 209,-167 " />
    <text
       style="font-size:10px;text-anchor:start;font-family:'Times New Roman,serif'"
       id="text4066"
       font-size="10.00"
       y="-155"
       x="227" />
    <polygon
       style="fill:none;stroke:#000000"
       id="polygon4068"
       points="248,-147 248,-127 209,-127 209,-127 209,-147 " />
    <text
       style="font-size:10px;text-anchor:start;font-family:'Times New Roman,serif'"
       id="text4070"
       font-size="10.00"
       y="-135"
       x="227" />
  </g>
  <g
     class="edge"
     id="edge4"
     transform="translate(4,576)">
    <title
       id="title4073">_Person-&gt;_Actress</title>
    <path
       style="fill:none;stroke:#000000"
       id="path4075"
       d="m 177.382,-237.589 c 10.027,15.964 21.376,34.033 30.783,49.01" />
    <polygon
       style="fill:none;stroke:#000000"
       id="polygon4077"
       points="180.251,-239.602 174.323,-235.879 174.323,-235.879 171.968,-246.209 " />
  </g>
  <g
     class="node"
     id="node4"
     transform="translate(4,576)">
    <title
       id="title4080">_Movie</title>
    <a
       xlink:href="../src/de/kassel/ttc2014/moviedb/model/Movie.java"
       xlink:title="&lt;TABLE&gt;"
       id="a4082">
      <polygon
         style="fill:none;stroke:#000000"
         id="polygon4084"
         points="102,-205 102,-188 21,-188 21,-188 21,-205 " />
      <text
         style="font-size:10px;text-anchor:start;font-family:'Times New Roman,serif'"
         id="text4086"
         font-size="10.00"
         y="-194.5"
         x="48">Movie</text>
    </a>
    <polygon
       style="fill:none;stroke:#000000"
       id="polygon4088"
       points="102,-188 102,-126 21,-126 21,-126 21,-188 " />
    <text
       style="font-size:10px;text-anchor:start;font-family:'Times New Roman,serif'"
       id="text4090"
       font-size="10.00"
       y="-176"
       x="26">title :String</text>
    <text
       style="font-size:10px;text-anchor:start;font-family:'Times New Roman,serif'"
       id="text4092"
       font-size="10.00"
       y="-162"
       x="26">rating :double</text>
    <text
       style="font-size:10px;text-anchor:start;font-family:'Times New Roman,serif'"
       id="text4094"
       font-size="10.00"
       y="-148"
       x="26">year :int</text>
    <text
       style="font-size:10px;text-anchor:start;font-family:'Times New Roman,serif'"
       id="text4096"
       font-size="10.00"
       y="-134"
       x="26">type :MovieType</text>
    <polygon
       style="fill:none;stroke:#000000"
       id="polygon4098"
       points="102,-126 102,-106 21,-106 21,-106 21,-126 " />
    <text
       style="font-size:10px;text-anchor:start;font-family:'Times New Roman,serif'"
       id="text4100"
       font-size="10.00"
       y="-114"
       x="60" />
  </g>
  <g
     class="edge"
     id="edge10"
     transform="translate(4,576)">
    <title
       id="title4103">_Person-&gt;_Movie</title>
    <path
       style="fill:none;stroke:#000000"
       id="path4105"
       d="m 128.091,-246.209 c -8.426,11.204 -18.137,24.116 -27.508,36.577" />
    <text
       style="font-size:10px;text-anchor:middle;font-family:'Times New Roman,serif'"
       id="text4107"
       font-size="10.00"
       y="-211.836"
       x="109.408">movies *</text>
    <text
       style="font-size:10px;text-anchor:middle;font-family:'Times New Roman,serif'"
       id="text4109"
       font-size="10.00"
       y="-239.006"
       x="119.266">persons *</text>
  </g>
  <g
     class="node"
     id="node9"
     transform="translate(4,576)">
    <title
       id="title4112">_MovieType</title>
    <a
       xlink:href="../src/de/kassel/ttc2014/moviedb/MovieType.java"
       xlink:title="&lt;TABLE&gt;"
       id="a4114">
      <polygon
         style="fill:none;stroke:#000000"
         id="polygon4116"
         points="89,-61 89,-44 34,-44 34,-44 34,-61 " />
      <text
         style="font-size:10px;text-anchor:start;font-family:'Times New Roman,serif'"
         id="text4118"
         font-size="10.00"
         y="-50.5"
         x="37.5">MovieType</text>
    </a>
    <polygon
       style="fill:none;stroke:#000000"
       id="polygon4120"
       points="89,-44 89,-24 34,-24 34,-24 34,-44 " />
    <text
       style="font-size:10px;text-anchor:start;font-family:'Times New Roman,serif'"
       id="text4122"
       font-size="10.00"
       y="-32"
       x="60" />
    <polygon
       style="fill:none;stroke:#000000"
       id="polygon4124"
       points="89,-24 89,-4 34,-4 34,-4 34,-24 " />
    <text
       style="font-size:10px;text-anchor:start;font-family:'Times New Roman,serif'"
       id="text4126"
       font-size="10.00"
       y="-12"
       x="60" />
  </g>
  <g
     class="edge"
     id="edge12"
     transform="translate(4,576)">
    <title
       id="title4129">_Movie-&gt;_MovieType</title>
    <path
       style="fill:none;stroke:#000000"
       id="path4131"
       d="m 61,-102.28 c 0,8.8746 0,17.9758 0,26.5232" />
    <polygon
       style="fill:#000000;stroke:#000000"
       id="polygon4133"
       points="61,-70.658 61.0001,-75.658 61.0001,-75.658 61.0001,-75.658 61,-70.658 56.5001,-75.658 61,-65.658 61,-65.658 61,-65.658 65.5001,-75.6579 " />
    <text
       style="font-size:10px;text-anchor:middle;font-family:'Times New Roman,serif'"
       id="text4135"
       font-size="10.00"
       y="-72.221001"
       x="65.226196">type</text>
  </g>
  <g
     class="node"
     id="node5"
     transform="translate(4,576)">
    <title
       id="title4138">_Group</title>
    <a
       xlink:href="../src/de/kassel/ttc2014/moviedb/model/Group.java"
       xlink:title="&lt;TABLE&gt;"
       id="a4140">
      <polygon
         style="fill:none;stroke:#000000"
         id="polygon4142"
         points="128,-553 128,-536 8,-536 8,-536 8,-553 " />
      <text
         style="font-size:10px;text-anchor:start;font-family:'Times New Roman,serif'"
         id="text4144"
         font-size="10.00"
         y="-542.5"
         x="55.5">Group</text>
    </a>
    <polygon
       style="fill:none;stroke:#000000"
       id="polygon4146"
       points="128,-536 128,-502 8,-502 8,-502 8,-536 " />
    <text
       style="font-size:10px;text-anchor:start;font-family:'Times New Roman,serif'"
       id="text4148"
       font-size="10.00"
       y="-524"
       x="13">avgRating :double</text>
    <text
       style="font-size:10px;text-anchor:start;font-family:'Times New Roman,serif'"
       id="text4150"
       font-size="10.00"
       y="-510"
       x="13">commonMovies :MovieSet</text>
    <polygon
       style="fill:none;stroke:#000000"
       id="polygon4152"
       points="128,-502 128,-482 8,-482 8,-482 8,-502 " />
    <text
       style="font-size:10px;text-anchor:start;font-family:'Times New Roman,serif'"
       id="text4154"
       font-size="10.00"
       y="-490"
       x="66.5" />
  </g>
  <g
     class="edge"
     id="edge14"
     transform="translate(4,576)">
    <title
       id="title4157">_Group-&gt;_Movie</title>
    <path
       style="fill:none;stroke:#000000"
       id="path4159"
       d="m 67.2509,-478.474 c -1.2026,61.847 -3.5756,183.888 -5.0269,258.524" />
    <polygon
       style="fill:#000000;stroke:#000000"
       id="polygon4161"
       points="62.1228,-214.744 62.2201,-219.743 62.2201,-219.743 62.2201,-219.743 62.1228,-214.744 57.7209,-219.83 62.0256,-209.745 62.0256,-209.745 62.0256,-209.745 66.7192,-219.655 " />
    <text
       style="font-size:10px;text-anchor:middle;font-family:'Times New Roman,serif'"
       id="text4163"
       font-size="10.00"
       y="-216.224"
       x="66.4272">commonMovies</text>
  </g>
  <g
     class="node"
     id="node6"
     transform="translate(4,576)">
    <title
       id="title4166">_Clique</title>
    <a
       xlink:href="../src/de/kassel/ttc2014/moviedb/model/Clique.java"
       xlink:title="&lt;TABLE&gt;"
       id="a4168">
      <polygon
         style="fill:none;stroke:#000000"
         id="polygon4170"
         points="294,-416 294,-399 205,-399 205,-399 205,-416 " />
      <text
         style="font-size:10px;text-anchor:start;font-family:'Times New Roman,serif'"
         id="text4172"
         font-size="10.00"
         y="-405.5"
         x="236.5">Clique</text>
    </a>
    <polygon
       style="fill:none;stroke:#000000"
       id="polygon4174"
       points="294,-399 294,-379 205,-379 205,-379 205,-399 " />
    <text
       style="font-size:10px;text-anchor:start;font-family:'Times New Roman,serif'"
       id="text4176"
       font-size="10.00"
       y="-387"
       x="210">persons :PersonSet</text>
    <polygon
       style="fill:none;stroke:#000000"
       id="polygon4178"
       points="294,-379 294,-359 205,-359 205,-359 205,-379 " />
    <text
       style="font-size:10px;text-anchor:start;font-family:'Times New Roman,serif'"
       id="text4180"
       font-size="10.00"
       y="-367"
       x="248" />
  </g>
  <g
     class="edge"
     id="edge6"
     transform="translate(4,576)">
    <title
       id="title4183">_Group-&gt;_Clique</title>
    <path
       style="fill:none;stroke:#000000"
       id="path4185"
       d="m 131.205,-472.302 c 24.145,17.074 51.149,36.171 73.205,51.769" />
    <polygon
       style="fill:none;stroke:#000000"
       id="polygon4187"
       points="132.983,-475.332 128.941,-469.617 128.941,-469.617 122.797,-478.248 " />
  </g>
  <g
     class="node"
     id="node7"
     transform="translate(4,576)">
    <title
       id="title4190">_Couple</title>
    <a
       xlink:href="../src/de/kassel/ttc2014/moviedb/model/Couple.java"
       xlink:title="&lt;TABLE&gt;"
       id="a4192">
      <polygon
         style="fill:none;stroke:#000000"
         id="polygon4194"
         points="170,-423 170,-406 116,-406 116,-406 116,-423 " />
      <text
         style="font-size:10px;text-anchor:start;font-family:'Times New Roman,serif'"
         id="text4196"
         font-size="10.00"
         y="-412.5"
         x="128.5">Couple</text>
    </a>
    <polygon
       style="fill:none;stroke:#000000"
       id="polygon4198"
       points="170,-406 170,-372 116,-372 116,-372 116,-406 " />
    <text
       style="font-size:10px;text-anchor:start;font-family:'Times New Roman,serif'"
       id="text4200"
       font-size="10.00"
       y="-394"
       x="121">p1 :Person</text>
    <text
       style="font-size:10px;text-anchor:start;font-family:'Times New Roman,serif'"
       id="text4202"
       font-size="10.00"
       y="-380"
       x="121">p2 :Person</text>
    <polygon
       style="fill:none;stroke:#000000"
       id="polygon4204"
       points="170,-372 170,-352 116,-352 116,-352 116,-372 " />
    <text
       style="font-size:10px;text-anchor:start;font-family:'Times New Roman,serif'"
       id="text4206"
       font-size="10.00"
       y="-360"
       x="141.5" />
  </g>
  <g
     class="edge"
     id="edge8"
     transform="translate(4,576)">
    <title
       id="title4209">_Group-&gt;_Couple</title>
    <path
       style="fill:none;stroke:#000000"
       id="path4211"
       d="m 95.8984,-469.387 c 8.0666,13.768 16.7696,28.62 24.4726,41.767" />
    <polygon
       style="fill:none;stroke:#000000"
       id="polygon4213"
       points="98.7813,-471.39 92.7417,-467.851 92.7417,-467.851 90.706,-478.248 " />
  </g>
  <g
     class="edge"
     id="edge16"
     transform="translate(4,576)">
    <title
       id="title4216">_Clique-&gt;_Person</title>
    <path
       style="fill:none;stroke:#000000"
       id="path4218"
       d="m 220.421,-355.475 c -10.268,11.327 -21.979,24.245 -32.774,36.153" />
    <polygon
       style="fill:#000000;stroke:#000000"
       id="polygon4220"
       points="184.068,-315.374 187.426,-319.078 187.426,-319.078 187.426,-319.078 184.068,-315.374 184.092,-322.1 180.709,-311.669 180.709,-311.669 180.709,-311.669 190.76,-316.056 " />
    <text
       style="font-size:10px;text-anchor:middle;font-family:'Times New Roman,serif'"
       id="text4222"
       font-size="10.00"
       y="-313.04501"
       x="189.92799">persons</text>
  </g>
  <g
     class="edge"
     id="edge18"
     transform="translate(4,576)">
    <title
       id="title4225">_Couple-&gt;_Person</title>
    <path
       style="fill:none;stroke:#000000"
       id="path4227"
       d="m 139.737,-348.371 c 0.446,8.692 1.196,17.951 2.163,26.758" />
    <polygon
       style="fill:#000000;stroke:#000000"
       id="polygon4229"
       points="142.524,-316.506 141.918,-321.469 141.918,-321.469 141.918,-321.469 142.524,-316.506 137.451,-320.924 143.13,-311.543 143.13,-311.543 143.13,-311.543 146.384,-322.015 " />
    <text
       style="font-size:10px;text-anchor:middle;font-family:'Times New Roman,serif'"
       id="text4231"
       font-size="10.00"
       y="-318.55099"
       x="146.226">p1</text>
  </g>
  <g
     class="edge"
     id="edge20"
     transform="translate(4,576)">
    <title
       id="title4234">_Couple-&gt;_Person</title>
    <path
       style="fill:none;stroke:#000000"
       id="path4236"
       d="m 152.762,-348.371 c 1.015,8.692 1.823,17.951 2.338,26.758" />
    <polygon
       style="fill:#000000;stroke:#000000"
       id="polygon4238"
       points="155.334,-316.538 155.103,-321.532 155.103,-321.532 155.103,-321.532 155.334,-316.538 150.608,-321.325 155.564,-311.543 155.564,-311.543 155.564,-311.543 159.598,-321.74 " />
    <text
       style="font-size:10px;text-anchor:middle;font-family:'Times New Roman,serif'"
       id="text4240"
       font-size="10.00"
       y="-318.29099"
       x="159.368">p2</text>
  </g>
  <g
     class="node"
     id="node8"
     transform="translate(4,576)">
    <title
       id="title4243">_Ranking</title>
    <a
       xlink:href="../src/de/kassel/ttc2014/moviedb/model/Ranking.java"
       xlink:title="&lt;TABLE&gt;"
       id="a4245">
      <polygon
         style="fill:none;stroke:#000000"
         id="polygon4247"
         points="336,-567 336,-550 163,-550 163,-550 163,-567 " />
      <text
         style="font-size:10px;text-anchor:start;font-family:'Times New Roman,serif'"
         id="text4249"
         font-size="10.00"
         y="-556.5"
         x="232.5">Ranking</text>
    </a>
    <polygon
       style="fill:none;stroke:#000000"
       id="polygon4251"
       points="336,-550 336,-488 163,-488 163,-488 163,-550 " />
    <text
       style="font-size:10px;text-anchor:start;font-family:'Times New Roman,serif'"
       id="text4253"
       font-size="10.00"
       y="-538"
       x="168">caseDescription :String</text>
    <text
       style="font-size:10px;text-anchor:start;font-family:'Times New Roman,serif'"
       id="text4255"
       font-size="10.00"
       y="-524"
       x="168">noOfCliques :int</text>
    <text
       style="font-size:10px;text-anchor:start;font-family:'Times New Roman,serif'"
       id="text4257"
       font-size="10.00"
       y="-510"
       x="168">avgBest :ArrayList&lt;Clique&gt;</text>
    <text
       style="font-size:10px;text-anchor:start;font-family:'Times New Roman,serif'"
       id="text4259"
       font-size="10.00"
       y="-496"
       x="168">commonMoviesBest :ArrayList&lt;Clique&gt;</text>
    <polygon
       style="fill:none;stroke:#000000"
       id="polygon4261"
       points="336,-488 336,-468 163,-468 163,-468 163,-488 " />
    <text
       style="font-size:10px;text-anchor:start;font-family:'Times New Roman,serif'"
       id="text4263"
       font-size="10.00"
       y="-476"
       x="248" />
  </g>
  <g
     class="edge"
     id="edge22"
     transform="translate(-12,576)">
    <title
       id="title4266">_Ranking-&gt;_Clique</title>
    <path
       style="fill:none;stroke:#000000"
       id="path4268"
       d="m 242.343,-464.199 c -0.185,11.053 -0.094,22.566 0.274,33.164" />
    <polygon
       style="fill:#000000;stroke:#000000"
       id="polygon4270"
       points="242.628,-430.782 242.628,-430.782 242.852,-425.787 238.132,-430.58 243.076,-420.792 243.076,-420.792 243.076,-420.792 247.123,-430.984 242.852,-425.787 242.628,-430.782 " />
    <text
       style="font-size:10px;text-anchor:middle;font-family:'Times New Roman,serif'"
       id="text4272"
       font-size="10.00"
       y="-427.535"
       x="246.892">avgBest</text>
  </g>
  <path
     d="m 289.28663,110.81335 c 0.185,11.053 0.094,22.566 -0.274,33.164"
     id="path4277"
     style="fill:none;stroke:#000000" />
  <polygon
     points="255.372,-430.782 255.148,-425.787 250.877,-430.984 254.924,-420.792 254.924,-420.792 254.924,-420.792 259.868,-430.58 255.148,-425.787 255.372,-430.782 255.372,-430.782 "
     id="polygon4279"
     style="fill:#000000;stroke:#000000"
     transform="translate(33.62963,575.01235)" />
  <text
     x="293.18164"
     y="139.8553"
     font-size="10.00"
     id="text4281"
     style="font-size:10px;text-anchor:middle;font-family:'Times New Roman,serif'">commonMoviesBest</text>
</svg>
