<?xml version="1.0" encoding="UTF-8" standalone="no"?>
<svg
   xmlns:dc="http://purl.org/dc/elements/1.1/"
   xmlns:cc="http://creativecommons.org/ns#"
   xmlns:rdf="http://www.w3.org/1999/02/22-rdf-syntax-ns#"
   xmlns:svg="http://www.w3.org/2000/svg"
   xmlns="http://www.w3.org/2000/svg"
   xmlns:sodipodi="http://sodipodi.sourceforge.net/DTD/sodipodi-0.dtd"
   xmlns:inkscape="http://www.inkscape.org/namespaces/inkscape"
   width="1413"
   height="846"
   style="width: 1413px; height: 846px;"
   id="svg2"
   version="1.1"
   inkscape:version="0.91 r13725"
   sodipodi:docname="ControlFlow.run.svg">
  <metadata
     id="metadata142">
    <rdf:RDF>
      <cc:Work
         rdf:about="">
        <dc:format>image/svg+xml</dc:format>
        <dc:type
           rdf:resource="http://purl.org/dc/dcmitype/StillImage" />
      </cc:Work>
    </rdf:RDF>
  </metadata>
  <sodipodi:namedview
     pagecolor="#ffffff"
     bordercolor="#666666"
     borderopacity="1"
     objecttolerance="10"
     gridtolerance="10"
     guidetolerance="10"
     inkscape:pageopacity="0"
     inkscape:pageshadow="2"
     inkscape:window-width="1920"
     inkscape:window-height="1177"
     id="namedview140"
     showgrid="false"
     inkscape:zoom="0.99079972"
     inkscape:cx="779.88534"
     inkscape:cy="410.93368"
     inkscape:window-x="1272"
     inkscape:window-y="-8"
     inkscape:window-maximized="1"
     inkscape:current-layer="svg2" />
  <defs
     id="defs4">
    <filter
       id="drop-shadow">
      <feGaussianBlur
         in="SourceAlpha"
         result="blur-out"
         stdDeviation="2"
         id="feGaussianBlur7" />
      <feOffset
         in="blur-out"
         dx="2"
         dy="2"
         id="feOffset9"
         result="result1" />
      <feBlend
         in="SourceGraphic"
         mode="normal"
         id="feBlend11"
         in2="result1" />
    </filter>
    <linearGradient
       id="reflect"
       x1="0%"
       x2="0%"
       y1="50%"
       y2="0%"
       spreadMethod="reflect">
      <stop
         offset="0%"
         style="stop-color: rgb(170, 170, 170);"
         id="stop14" />
      <stop
         offset="100%"
         style="stop-color: rgb(238, 238, 238);"
         id="stop16" />
    </linearGradient>
    <linearGradient
       id="classelement"
       x1="0%"
       x2="100%"
       y1="100%"
       y2="0%">
      <stop
         offset="0"
         style="stop-color: rgb(255, 255, 255);"
         id="stop19" />
      <stop
         offset="1"
         style="stop-color: rgb(211, 211, 211);"
         id="stop21" />
    </linearGradient>
  </defs>
  <g
     id="g23"
     transform="translate(0,-12)">
    <rect
       width="158.71875"
       height="90"
       x="45"
       y="56"
       class="draggable"
       id="rect25"
       style="fill:#add8e6;stroke:#000000" />
    <text
       x="55"
       y="76"
       width="138.71875"
       id="text27">c1 : ControlFlowPO</text>
    <line
       x1="45"
       y1="86"
       x2="203.71875"
       y2="86"
       id="line29"
       style="stroke:#000000" />
    <text
       width="158.71875"
       x="55"
       y="106"
       id="text31">&lt;&lt; start &gt;&gt;</text>
    <text
       width="158.71875"
       x="55"
       y="126"
       id="text33">&lt;&lt; bound&gt;&gt;</text>
  </g>
  <g
     id="g35"
     transform="translate(0,-12)">
    <rect
       width="163.17188"
       height="60"
       x="438"
       y="72"
       class="draggable"
       id="rect37"
       style="fill:#add8e6;stroke:#000000" />
    <text
       x="448"
       y="92"
       width="143.171875"
       id="text39">a7 : ActivityNodePO</text>
    <line
       x1="438"
       y1="102"
       x2="601.17188"
       y2="102"
       id="line41"
       style="stroke:#000000" />
  </g>
  <g
     id="g43"
     transform="translate(0,-12)">
    <rect
       width="114.26562"
       height="60"
       x="286"
       y="219"
       class="draggable"
       id="rect45"
       style="fill:#add8e6;stroke:#000000" />
    <text
       x="296"
       y="239"
       width="94.265625"
       id="text47">t2 : TokenPO</text>
    <line
       x1="286"
       y1="249"
       x2="400.26562"
       y2="249"
       id="line49"
       style="stroke:#000000" />
  </g>
  <g
     id="g53"
     transform="translate(-344.16643,-428.835)">
    <rect
       style="fill:#add8e6;stroke:#000000"
       id="rect55"
       class="draggable"
       y="765"
       x="411"
       height="60"
       width="191.67188" />
    <text
       id="text57"
       width="171.671875"
       y="785"
       x="421">b3 : BooleanVariablePO</text>
    <line
       style="stroke:#000000"
       id="line59"
       y2="795"
       x2="602.67188"
       y1="795"
       x1="411" />
  </g>
  <g
     id="g61"
     transform="translate(-344.16643,-428.835)">
    <rect
       style="fill:#add8e6;stroke:#000000"
       id="rect63"
       class="draggable"
       y="766"
       x="700"
       height="60"
       width="191.67188" />
    <text
       id="text65"
       width="171.671875"
       y="786"
       x="710">b4 : BooleanVariablePO</text>
    <line
       style="stroke:#000000"
       id="line67"
       y2="796"
       x2="891.67188"
       y1="796"
       x1="700" />
  </g>
  <g
     id="g69"
     transform="translate(-344.16643,-428.835)">
    <rect
       style="fill:#add8e6;stroke:#000000"
       id="rect71"
       class="draggable"
       y="763"
       x="1008"
       height="60"
       width="114.28125" />
    <text
       id="text73"
       width="94.28125"
       y="783"
       x="1018">v5 : ValuePO</text>
    <line
       style="stroke:#000000"
       id="line75"
       y2="793"
       x2="1122.2812"
       y1="793"
       x1="1008" />
  </g>
  <g
     id="g77"
     transform="translate(-344.16643,-428.835)">
    <rect
       style="fill:#add8e6;stroke:#000000"
       id="rect79"
       class="draggable"
       y="760"
       x="1219"
       height="65"
       width="173.89062" />
    <text
       id="text81"
       width="153.890625"
       y="780"
       x="1229">b6 : BooleanValuePO</text>
    <line
       style="stroke:#000000"
       id="line83"
       y2="790"
       x2="1392.8906"
       y1="790"
       x1="1219" />
    <text
       id="text85"
       y="810"
       x="1229"
       width="173.890625">value == false</text>
  </g>
  <g
     id="g87"
     class="draggable"
     width="30"
     height="30"
     transform="translate(50,284)">
    <path
       inkscape:connector-curvature="0"
       id="path89"
       style="fill:#ffffff;stroke:#bb0000;stroke-width:2px"
       d="M 6,6 A 14,14 0 1 0 6.0636,5.935 Z m 0,0 20.73215,21.0846" />
  </g>
  <rect
     style="fill:none;stroke:#fe3e3e;stroke-width:0.42205134"
     id="rect91"
     class="draggable"
     y="283.711"
     x="49.711025"
     strokeWidth="1px"
     height="127.78009"
     width="1018.4951" />
  <line
     x1="191"
     y1="134"
     x2="299"
     y2="207"
     id="line99"
     style="stroke:#000000" />
  <text
     x="269.3382"
     y="-3.7284238"
     id="c1 : ControlFlowPO"
     class="draggable"
     transform="matrix(0.81245887,0.58301851,-0.58301851,0.81245887,0,0)" />
  <text
     x="319.79279"
     y="11.966094"
     id="t2 : TokenPO"
     class="draggable"
     transform="matrix(0.81245887,0.58301851,-0.58301851,0.81245887,0,0)">token</text>
  <text
     x="327.57584"
     y="-4.9021697"
     id="text105"
     class="draggable"
     transform="matrix(0.81245887,0.58301851,-0.58301851,0.81245887,0,0)" />
  <text
     x="218.41245"
     y="11.765917"
     id="text107"
     class="draggable"
     transform="matrix(0.81245887,0.58301851,-0.58301851,0.81245887,0,0)">currentElements</text>
  <text
     x="208.84248"
     y="-77.600281"
     id="text111"
     class="draggable"
     transform="matrix(0.43663401,0.89963923,-0.89963923,0.43663401,0,0)" />
  <text
     x="317.36014"
     y="-103.54782"
     id="b3 : BooleanVariablePO"
     class="draggable"
     transform="matrix(0.18420226,0.98288836,-0.98288836,0.18420226,0,0)">guard</text>
  <line
     x1="258.83356"
     y1="366.16501"
     x2="355.83356"
     y2="367.16501"
     id="line114"
     style="stroke:#000000" />
  <text
     x="631.41626"
     y="776.22894"
     id="text116"
     class="draggable"
     transform="matrix(0.99994173,0.01079526,-0.01079526,0.99994173,0,0)" />
  <text
     x="286.72681"
     y="359.09082"
     id="b4 : BooleanVariablePO"
     class="draggable"
     transform="matrix(0.99994173,0.01079526,-0.01079526,0.99994173,0,0)">instanceof</text>
  <line
     x1="547.83356"
     y1="366.16501"
     x2="663.83356"
     y2="365.16501"
     id="line119"
     style="stroke:#000000" />
  <text
     x="904.89459"
     y="791.20081"
     id="text121"
     class="draggable"
     transform="matrix(0.99995925,-0.00902722,0.00902722,0.99995925,0,0)" />
  <text
     x="571.5592"
     y="365.33969"
     id="v5 : ValuePO"
     class="draggable"
     transform="matrix(0.99995925,-0.00902722,0.00902722,0.99995925,0,0)">currentValue</text>
  <line
     x1="777.83356"
     y1="364.16501"
     x2="874.83356"
     y2="364.16501"
     id="line124"
     style="stroke:#000000" />
  <text
     x="1142"
     y="781"
     id="text126"
     class="draggable" />
  <text
     x="445.55569"
     y="109.88073"
     id="b6 : BooleanValuePO"
     class="draggable">noOfVisitors++</text>
  <line
     x1="204"
     y1="89"
     x2="438"
     y2="90"
     id="line129"
     style="stroke:#000000" />
  <text
     x="224.39601"
     y="87.996689"
     id="text131"
     class="draggable"
     transform="matrix(0.99998999,0.00447516,-0.00447516,0.99998999,0,0)" />
  <text
     x="377.37219"
     y="82.312042"
     id="a7 : ActivityNodePO"
     class="draggable"
     transform="matrix(0.99998999,0.00447516,-0.00447516,0.99998999,0,0)">target</text>
  <line
     x1="379"
     y1="207"
     x2="484"
     y2="120"
     id="line134"
     style="stroke:#000000" />
  <text
     x="177.81061"
     y="407.13806"
     id="text136"
     class="draggable"
     transform="matrix(0.74877895,-0.6628198,0.6628198,0.74877895,0,0)" />
  <text
     x="180.2598"
     y="423.36798"
     id="text138"
     class="draggable"
     transform="matrix(0.74877895,-0.6628198,0.6628198,0.74877895,0,0)">currentElements</text>
  <path
     style="fill:none;fill-rule:evenodd;stroke:#000000;stroke-width:1px;stroke-linecap:butt;stroke-linejoin:miter;stroke-opacity:1"
     d="m 127.17,133.55571 32.29714,200.84786"
     id="path3493"
     inkscape:connector-curvature="0" />
  <text
     x="789.65723"
     y="357.04434"
     id="b6 : BooleanValuePO-0"
     class="draggable"
     inkscape:transform-center-x="13.120714"
     inkscape:transform-center-y="-75.696429">instanceof</text>
  <text
     x="255.03244"
     y="-15.240623"
     id="text107-7"
     class="draggable"
     transform="matrix(0.81245887,0.58301851,-0.58301851,0.81245887,0,0)">&lt;&lt;destroy&gt;&gt;</text>
  <text
     x="181.88872"
     y="402.7919"
     id="text138-7"
     class="draggable"
     transform="matrix(0.74877895,-0.6628198,0.6628198,0.74877895,0,0)">&lt;&lt;create&gt;&gt;</text>
</svg>
