<svg xmlns="http://www.w3.org/2000/svg" xmlns:svg="http://www.w3.org/2000/svg" xmlns:xlink="http://www.w3.org/1999/xlink" width="602" height="265" style="width: 602px; height: 265px;"><defs><filter id="drop-shadow"><feGaussianBlur in="SourceAlpha" result="blur-out" stdDeviation="2"/><feOffset in="blur-out" dx="2" dy="2"/><feBlend in="SourceGraphic" mode="normal"/></filter><linearGradient id="reflect" x1="0%" x2="0%" y1="50%" y2="0%" spreadMethod="reflect"><stop offset="0%" style="stop-color: rgb(170, 170, 170);"/><stop offset="100%" style="stop-color: rgb(238, 238, 238);"/></linearGradient><linearGradient id="classelement" x1="0%" x2="100%" y1="100%" y2="0%"><stop offset="0" style="stop-color: rgb(255, 255, 255);"/><stop offset="1" style="stop-color: rgb(211, 211, 211);"/></linearGradient></defs><g><rect width="106.3125" height="90" x="30" y="50" fill="lightblue" class="draggable" stroke="#000"/><text x="40.90625" y="70" width="84.5">i1 : InputPO</text><line x1="30" y1="80" x2="136.3125" y2="80" stroke="#000"/><text width="106.3125" x="40" y="100">&lt;&lt; start &gt;&gt;</text><text width="106.3125" x="40" y="120">&lt;&lt; bound&gt;&gt;</text></g><g><rect width="145.421875" height="60" x="238" y="67" fill="lightblue" class="draggable" stroke="#000"/><text x="248" y="87" width="125.421875">i2 : InputValuePO</text><line x1="238" y1="97" x2="383.421875" y2="97" stroke="#000"/></g><g><rect width="114.28125" height="60" x="478" y="138" fill="lightblue" class="draggable" stroke="#000"/><text x="488" y="158" width="94.28125">v4 : ValuePO</text><line x1="478" y1="168" x2="592.28125" y2="168" stroke="#000"/></g><g><rect width="132.0625" height="60" x="243" y="195" fill="lightblue" class="draggable" stroke="#000"/><text x="253" y="215" width="112.0625">v3 : VariablePO</text><line x1="243" y1="225" x2="375.0625" y2="225" stroke="#000"/></g><line x1="136" y1="95" x2="238" y2="96" stroke="#000"/><text x="136" y="95" id="i1 : InputPO" class="draggable" transform="rotate(0.5882164487577585,136,95)"> </text><text x="154" y="96" id="i2 : InputValuePO" class="draggable" transform="rotate(0.5882164487577585,154,96)">inputValues</text><line x1="311" y1="127" x2="309" y2="195" stroke="#000"/><text x="311" y="127" id="i2 : InputValuePO" class="draggable" transform="rotate(-92.4835823154535,311,127)"> </text><text x="310" y="178" id="v3 : VariablePO" class="draggable" transform="rotate(-92.4835823154535,310,178)">variable</text><line x1="383" y1="120" x2="478" y2="150" stroke="#000"/><text x="383" y="120" id="i2 : InputValuePO" class="draggable" transform="rotate(18.35273228429113,383,120)"> </text><text x="440" y="138" id="v4 : ValuePO" class="draggable" transform="rotate(18.35273228429113,440,138)">value</text><line x1="375" y1="208" x2="478" y2="182" stroke="#000"/><text x="375" y="208" id="v3 : VariablePO" class="draggable" transform="rotate(-14.835705850965628,375,208)"> </text><text x="387" y="205" id="v4 : ValuePO" class="draggable" transform="rotate(-14.835705850965628,387,205)">currentValue</text></svg>