<?xml version="1.0" encoding="UTF-8" standalone="no"?>
<!-- Generated by graphviz version 2.28.0 (20110507.0327)
 -->

<!-- Title: ObjectDiagram Pages: 1 -->

<svg
   xmlns:dc="http://purl.org/dc/elements/1.1/"
   xmlns:cc="http://creativecommons.org/ns#"
   xmlns:rdf="http://www.w3.org/1999/02/22-rdf-syntax-ns#"
   xmlns:svg="http://www.w3.org/2000/svg"
   xmlns="http://www.w3.org/2000/svg"
   xmlns:sodipodi="http://sodipodi.sourceforge.net/DTD/sodipodi-0.dtd"
   xmlns:inkscape="http://www.inkscape.org/namespaces/inkscape"
   width="461pt"
   height="495pt"
   viewBox="0.00 0.00 460.92 495.00"
   id="svg3370"
   version="1.1"
   inkscape:version="0.47 r22583"
   sodipodi:docname="lookForCliques.pdf">
  <metadata
     id="metadata3564">
    <rdf:RDF>
      <cc:Work
         rdf:about="">
        <dc:format>image/svg+xml</dc:format>
        <dc:type
           rdf:resource="http://purl.org/dc/dcmitype/StillImage" />
        <dc:title></dc:title>
      </cc:Work>
    </rdf:RDF>
  </metadata>
  <defs
     id="defs3562">
    <inkscape:perspective
       sodipodi:type="inkscape:persp3d"
       inkscape:vp_x="0 : 309.375 : 1"
       inkscape:vp_y="0 : 1000 : 0"
       inkscape:vp_z="576.25 : 309.375 : 1"
       inkscape:persp3d-origin="288.125 : 206.25 : 1"
       id="perspective3566" />
  </defs>
  <sodipodi:namedview
     pagecolor="#ffffff"
     bordercolor="#666666"
     borderopacity="1"
     objecttolerance="10"
     gridtolerance="10"
     guidetolerance="10"
     inkscape:pageopacity="0"
     inkscape:pageshadow="2"
     inkscape:window-width="1920"
     inkscape:window-height="1179"
     id="namedview3560"
     showgrid="false"
     inkscape:zoom="1.7577085"
     inkscape:cx="370.12172"
     inkscape:cy="372.84691"
     inkscape:window-x="1272"
     inkscape:window-y="-8"
     inkscape:window-maximized="1"
     inkscape:current-layer="svg3370" />
  <g
     class="cluster"
     id="graph2"
     transform="translate(4,491)">
    <title
       id="title3378">cluster_o6</title>
    <polygon
       style="fill:none;stroke:#808080"
       id="polygon3380"
       points="131.924,-173 131.924,-8 23.9235,-8 23.9235,-8 23.9235,-173 " />
    <text
       style="font-size:14px;text-anchor:start;font-family:'Times New Roman,serif'"
       id="text3382"
       font-size="14.00"
       y="-153.8"
       x="46.4235">optional o6</text>
  </g>
  <g
     class="node"
     id="node1"
     transform="translate(4,491)">
    <title
       id="title3385">p1</title>
    <polygon
       style="fill:#00bfff;stroke:#00bfff"
       id="polygon3387"
       points="96.4235,-386.5 96.4235,-349.5 17.4235,-349.5 17.4235,-349.5 17.4235,-386.5 " />
    <polygon
       style="fill:none;stroke:#000000"
       id="polygon3389"
       points="96.9235,-386 96.9235,-369 17.9235,-369 17.9235,-369 17.9235,-386 " />
    <text
       style="font-size:10px;text-anchor:start;font-family:Arial"
       id="text3391"
       font-size="10.00"
       y="-375.5"
       x="21.4235" />
    <text
       style="font-size:10px;text-anchor:start;font-family:Arial"
       id="text3393"
       font-size="10.00"
       y="-375.5"
       x="25.4235">p1 :PersonPO</text>
    <polygon
       style="fill:none;stroke:#000000"
       id="polygon3395"
       points="96.9235,-369 96.9235,-349 17.9235,-349 17.9235,-349 17.9235,-369 " />
    <text
       style="font-size:10px;text-anchor:start;font-family:Arial"
       id="text3397"
       font-size="10.00"
       y="-357"
       x="53.9235"> </text>
  </g>
  <g
     class="node"
     id="node2"
     transform="translate(4,491)">
    <title
       id="title3400">m2</title>
    <polygon
       style="fill:#00bfff;stroke:#00bfff"
       id="polygon3402"
       points="96.9235,-304.5 96.9235,-267.5 20.9235,-267.5 20.9235,-267.5 20.9235,-304.5 " />
    <polygon
       style="fill:none;stroke:#000000"
       id="polygon3404"
       points="96.9235,-304 96.9235,-287 20.9235,-287 20.9235,-287 20.9235,-304 " />
    <text
       style="font-size:10px;text-anchor:start;font-family:Arial"
       id="text3406"
       font-size="10.00"
       y="-293.5"
       x="24.4235" />
    <text
       style="font-size:10px;text-anchor:start;font-family:Arial"
       id="text3408"
       font-size="10.00"
       y="-293.5"
       x="28.4235">m2 :MoviePO</text>
    <polygon
       style="fill:none;stroke:#000000"
       id="polygon3410"
       points="96.9235,-287 96.9235,-267 20.9235,-267 20.9235,-267 20.9235,-287 " />
    <text
       style="font-size:10px;text-anchor:start;font-family:Arial"
       id="text3412"
       font-size="10.00"
       y="-275"
       x="55.4235"> </text>
  </g>
  <g
     class="edge"
     id="edge11"
     transform="translate(4,491)">
    <title
       id="title3415">p1--m2</title>
    <path
       style="fill:none;stroke:#000000"
       id="path3417"
       d="m 57.47,-345.14 c 0.2845,11.381 0.6312,25.247 0.9146,36.583" />
    <text
       style="font-size:10px;text-anchor:middle;font-family:Arial"
       id="text3419"
       font-size="10.00"
       y="-315.22299"
       x="62.3829">movies</text>
  </g>
  <g
     class="node"
     id="node7"
     transform="translate(4,491)">
    <title
       id="title3422">m7</title>
    <polygon
       style="fill:#00bfff;stroke:#00bfff"
       id="polygon3424"
       points="115.924,-129.5 115.924,-92.5 39.9235,-92.5 39.9235,-92.5 39.9235,-129.5 " />
    <polygon
       style="fill:none;stroke:#000000"
       id="polygon3426"
       points="115.924,-129 115.924,-112 39.9235,-112 39.9235,-112 39.9235,-129 " />
    <text
       style="font-size:10px;text-anchor:start;font-family:Arial"
       id="text3428"
       font-size="10.00"
       y="-118.5"
       x="43.4235" />
    <text
       style="font-size:10px;text-anchor:start;font-family:Arial"
       id="text3430"
       font-size="10.00"
       y="-118.5"
       x="47.4235">m7 :MoviePO</text>
    <polygon
       style="fill:none;stroke:#000000"
       id="polygon3432"
       points="115.924,-112 115.924,-92 39.9235,-92 39.9235,-92 39.9235,-112 " />
    <text
       style="font-size:10px;text-anchor:start;font-family:Arial"
       id="text3434"
       font-size="10.00"
       y="-100"
       x="74.4235"> </text>
  </g>
  <g
     class="edge"
     id="edge19"
     transform="translate(4,491)">
    <title
       id="title3437">p1--m7</title>
    <path
       style="fill:none;stroke:#000000"
       id="path3439"
       d="m 29.8874,-345.301 c -10.1779,9.868 -20.58474,22.44 -25.96389,36.301 -7.39668,19.059 -2.086,25.662 0,46 3.79759,37.025 0.8969,48.444 16.99999,82 8.4704,17.651 22.4109,34.642 34.385,47.346" />
    <text
       style="font-size:10px;text-anchor:middle;font-family:Arial"
       id="text3441"
       font-size="10.00"
       y="-140.67599"
       x="52.2533">movies</text>
  </g>
  <g
     class="node"
     id="node3"
     transform="translate(4,491)">
    <title
       id="title3444">p3</title>
    <polygon
       style="fill:#00bfff;stroke:#00bfff"
       id="polygon3446"
       points="117.424,-222.5 117.424,-185.5 38.4235,-185.5 38.4235,-185.5 38.4235,-222.5 " />
    <polygon
       style="fill:none;stroke:#000000"
       id="polygon3448"
       points="117.924,-222 117.924,-205 38.9235,-205 38.9235,-205 38.9235,-222 " />
    <text
       style="font-size:10px;text-anchor:start;font-family:Arial"
       id="text3450"
       font-size="10.00"
       y="-211.5"
       x="42.4235" />
    <text
       style="font-size:10px;text-anchor:start;font-family:Arial"
       id="text3452"
       font-size="10.00"
       y="-211.5"
       x="46.4235">p3 :PersonPO</text>
    <polygon
       style="fill:none;stroke:#000000"
       id="polygon3454"
       points="117.924,-205 117.924,-185 38.9235,-185 38.9235,-185 38.9235,-205 " />
    <text
       style="font-size:10px;text-anchor:start;font-family:Arial"
       id="text3456"
       font-size="10.00"
       y="-193"
       x="74.9235"> </text>
  </g>
  <g
     class="edge"
     id="edge13"
     transform="translate(4,491)">
    <title
       id="title3459">m2--p3</title>
    <path
       style="fill:none;stroke:#000000"
       id="path3461"
       d="m 64.1153,-263.14 c 2.7029,11.381 5.9961,25.247 8.6884,36.583" />
    <text
       style="font-size:10px;text-anchor:middle;font-family:Arial"
       id="text3463"
       font-size="10.00"
       y="-233.851"
       x="74.821297">persons</text>
  </g>
  <g
     class="edge"
     id="edge21"
     transform="translate(4,491)">
    <title
       id="title3466">p3--m7</title>
    <path
       style="fill:none;stroke:#000000"
       id="path3468"
       d="m 77.9235,-181.434 c 0,14.401 0,33.274 0,47.708" />
    <text
       style="font-size:10px;text-anchor:middle;font-family:Arial"
       id="text3470"
       font-size="10.00"
       y="-140.289"
       x="82.149696">movies</text>
  </g>
  <g
     class="node"
     id="node4"
     transform="translate(-56.988498,580.20706)">
    <title
       id="title3473">g4</title>
    <text
       style="font-size:10px;text-anchor:middle;font-family:Arial"
       id="text3475"
       font-size="10.00"
       y="-454.5"
       x="315.92401">{p1.name &lt; p3.name}</text>
  </g>
  <g
     class="node"
     id="node9"
     transform="translate(-56.988498,580.20706)">
    <title
       id="title3478">g8</title>
    <text
       style="font-size:10px;text-anchor:middle;font-family:Arial"
       id="text3480"
       font-size="10.00"
       y="-365.5"
       x="315.92401">{c4.commonMovies.size() &gt;= 3}</text>
  </g>
  <g
     class="edge"
     id="edge5"
     transform="translate(-56.988498,580.20706)">
    <title
       id="title3483">g4--g8</title>
    <path
       style="fill:none;stroke:#000000;stroke-dasharray:1, 5"
       id="path3485"
       d="m 315.924,-438.812 c 0,15.253 0,37.418 0,52.659" />
  </g>
  <g
     class="node"
     id="node5"
     transform="translate(4,491)">
    <title
       id="title3488">c5</title>
    <polygon
       style="fill:#00bfff;stroke:#00bfff"
       id="polygon3490"
       points="170.424,-482.5 170.424,-431.5 95.4235,-431.5 95.4235,-431.5 95.4235,-482.5 " />
    <text
       style="font-size:10px;text-anchor:start;fill:#008000;font-family:Arial"
       id="text3492"
       font-size="10.00"
       y="-472.5"
       x="130.924">«create»</text>
    <polygon
       style="fill:none;stroke:#008000"
       id="polygon3494"
       points="170.924,-467 170.924,-451 95.9235,-451 95.9235,-451 95.9235,-467 " />
    <text
       style="font-size:10px;text-anchor:start;font-family:Arial"
       id="text3496"
       font-size="10.00"
       y="-457"
       x="99.4235" />
    <text
       style="font-size:10px;text-anchor:start;fill:#008000;font-family:Arial"
       id="text3498"
       font-size="10.00"
       y="-457"
       x="103.424">c4 :CliquePO</text>
    <polygon
       style="fill:none;stroke:#008000"
       id="polygon3500"
       points="170.924,-451 170.924,-431 95.9235,-431 95.9235,-431 95.9235,-451 " />
    <text
       style="font-size:10px;text-anchor:start;font-family:Arial"
       id="text3502"
       font-size="10.00"
       y="-439"
       x="129.924"> </text>
  </g>
  <g
     class="edge"
     id="edge15"
     transform="translate(4,491)">
    <title
       id="title3505">c5--p1</title>
    <path
       style="fill:none;stroke:#008000"
       id="path3507"
       d="m 107.617,-427.03 c -10.3637,11.863 -22.1501,25.355 -31.7482,36.343" />
    <text
       style="font-size:10px;text-anchor:middle;fill:#008000;font-family:Arial"
       id="text3509"
       font-size="10.00"
       y="-392.23199"
       x="85.014099">persons</text>
  </g>
  <g
     class="edge"
     id="edge17"
     transform="translate(4,491)">
    <title
       id="title3512">c5--p3</title>
    <path
       style="fill:none;stroke:#008000"
       id="path3514"
       d="m 134.096,-427.351 c 0.687,38.451 -1.203,108.39 -20.172,164.351 -4.376,12.908 -12.085,25.923 -19.2496,36.344" />
    <text
       style="font-size:10px;text-anchor:middle;fill:#008000;font-family:Arial"
       id="text3516"
       font-size="10.00"
       y="-229.302"
       x="103.249">persons</text>
  </g>
  <g
     class="edge"
     id="edge23"
     transform="translate(4,491)">
    <title
       id="title3519">c5--m7</title>
    <path
       style="fill:none;stroke:#008000"
       id="path3521"
       d="m 140.451,-427.414 c 2.603,11.261 5.189,24.361 6.473,36.414 6.799,63.858 -7.633,196.579 -13,210 -7.161,17.906 -20.681,34.777 -32.642,47.354" />
    <text
       style="font-size:10px;text-anchor:middle;fill:#008000;font-family:Arial"
       id="text3523"
       font-size="10.00"
       y="-134.903"
       x="110.55">commonMovies</text>
  </g>
  <g
     class="node"
     id="node8"
     transform="translate(4,491)">
    <title
       id="title3526">allMatches_m7</title>
    <text
       style="font-size:10px;text-anchor:middle;font-family:Arial"
       id="text3528"
       font-size="10.00"
       y="-31.5"
       x="77.9235">allMatches</text>
  </g>
  <g
     class="edge"
     id="edge3"
     transform="translate(4,491)">
    <title
       id="title3531">m7--allMatches_m7</title>
    <path
       style="fill:none;stroke:#000000;stroke-dasharray:1, 5"
       id="path3533"
       d="m 77.9235,-88.3069 c 0,11.4213 0,25.237 0,35.9414" />
  </g>
  <g
     class="node"
     id="node10"
     transform="translate(-56.988498,580.20706)">
    <title
       id="title3536">g9</title>
    <text
       style="font-size:10px;text-anchor:middle;font-family:Arial"
       id="text3538"
       font-size="10.00"
       y="-283.5"
       x="315.92401">addToCliques(c4.commonMovies, c4.persons)</text>
  </g>
  <g
     class="edge"
     id="edge7"
     transform="translate(-56.988498,580.20706)">
    <title
       id="title3541">g8--g9</title>
    <path
       style="fill:none;stroke:#000000;stroke-dasharray:1, 5"
       id="path3543"
       d="m 315.924,-349.641 c 0,13.51 0,32.159 0,45.591" />
  </g>
  <g
     class="node"
     id="node11"
     transform="translate(-56.988498,580.20706)">
    <title
       id="title3546">g10</title>
    <text
       style="font-size:10px;text-anchor:middle;font-family:Arial"
       id="text3548"
       font-size="10.00"
       y="-201.5"
       x="315.92401">lookForCliques(c4.commonMovies, 3, c4.persons)</text>
  </g>
  <g
     class="edge"
     id="edge9"
     transform="translate(-56.988498,580.20706)">
    <title
       id="title3551">g9--g10</title>
    <path
       style="fill:none;stroke:#000000;stroke-dasharray:1, 5"
       id="path3553"
       d="m 315.924,-267.641 c 0,13.51 0,32.159 0,45.591" />
  </g>
  <g
     class="node"
     id="node12"
     transform="translate(-183.51687,501.01304)">
    <title
       id="title3556">allMatches</title>
    <text
       style="font-size:10px;text-anchor:middle;font-family:Arial"
       id="text3558"
       font-size="10.00"
       y="-454.5"
       x="420.92401">allMatches</text>
  </g>
</svg>
