<?xml version="1.0" encoding="UTF-8" standalone="no"?>
<!-- Generated by graphviz version 2.28.0 (20110507.0327)
 -->

<!-- Title: ObjectDiagram Pages: 1 -->

<svg
   xmlns:dc="http://purl.org/dc/elements/1.1/"
   xmlns:cc="http://creativecommons.org/ns#"
   xmlns:rdf="http://www.w3.org/1999/02/22-rdf-syntax-ns#"
   xmlns:svg="http://www.w3.org/2000/svg"
   xmlns="http://www.w3.org/2000/svg"
   xmlns:sodipodi="http://sodipodi.sourceforge.net/DTD/sodipodi-0.dtd"
   xmlns:inkscape="http://www.inkscape.org/namespaces/inkscape"
   width="608pt"
   height="438pt"
   viewBox="0.00 0.00 608.07 438.00"
   id="svg2"
   version="1.1"
   inkscape:version="0.47 r22583"
   sodipodi:docname="lookForCliques.pdf">
  <metadata
     id="metadata237">
    <rdf:RDF>
      <cc:Work
         rdf:about="">
        <dc:format>image/svg+xml</dc:format>
        <dc:type
           rdf:resource="http://purl.org/dc/dcmitype/StillImage" />
        <dc:title></dc:title>
      </cc:Work>
    </rdf:RDF>
  </metadata>
  <defs
     id="defs235">
    <inkscape:perspective
       sodipodi:type="inkscape:persp3d"
       inkscape:vp_x="0 : 273.75 : 1"
       inkscape:vp_y="0 : 1000 : 0"
       inkscape:vp_z="760 : 273.75 : 1"
       inkscape:persp3d-origin="380 : 182.5 : 1"
       id="perspective239" />
  </defs>
  <sodipodi:namedview
     pagecolor="#ffffff"
     bordercolor="#666666"
     borderopacity="1"
     objecttolerance="10"
     gridtolerance="10"
     guidetolerance="10"
     inkscape:pageopacity="0"
     inkscape:pageshadow="2"
     inkscape:window-width="1920"
     inkscape:window-height="1179"
     id="namedview233"
     showgrid="false"
     inkscape:zoom="1.72"
     inkscape:cx="359.222"
     inkscape:cy="272.22887"
     inkscape:window-x="1272"
     inkscape:window-y="-8"
     inkscape:window-maximized="1"
     inkscape:current-layer="svg2" />
  <g
     class="cluster"
     id="graph2"
     transform="translate(4,434)">
    <title
       id="title10">cluster_o6</title>
    <polygon
       style="fill:none;stroke:#808080"
       id="polygon12"
       points="117.072,-173 117.072,-8 9.07189,-8 9.07189,-8 9.07189,-173 " />
    <text
       style="font-size:14px;text-anchor:start;font-family:'Times New Roman,serif'"
       id="text14"
       font-size="14.00"
       y="-153.8"
       x="31.571899">optional o6</text>
  </g>
  <g
     class="cluster"
     id="graph3"
     transform="translate(4,434)">
    <title
       id="title17">cluster_o9</title>
    <polygon
       style="fill:none;stroke:#808080"
       id="polygon19"
       points="296.072,-266 296.072,-85 180.072,-85 180.072,-85 180.072,-266 " />
    <text
       style="font-size:14px;text-anchor:start;font-family:'Times New Roman,serif'"
       id="text21"
       font-size="14.00"
       y="-246.8"
       x="206.57201">optional o9</text>
  </g>
  <g
     class="node"
     id="node1"
     transform="translate(4,434)">
    <title
       id="title24">c1</title>
    <polygon
       style="fill:#00bfff;stroke:#00bfff"
       id="polygon26"
       points="95.5719,-425.5 95.5719,-374.5 20.5719,-374.5 20.5719,-374.5 20.5719,-425.5 " />
    <text
       style="font-size:10px;text-anchor:start;font-family:Arial"
       id="text28"
       font-size="10.00"
       y="-415.5"
       x="57.071899">«bound»</text>
    <polygon
       style="fill:none;stroke:#000000"
       id="polygon30"
       points="96.0719,-410 96.0719,-394 21.0719,-394 21.0719,-394 21.0719,-410 " />
    <text
       style="font-size:10px;text-anchor:start;font-family:Arial"
       id="text32"
       font-size="10.00"
       y="-400"
       x="24.571899" />
    <text
       style="font-size:10px;text-anchor:start;font-family:Arial"
       id="text34"
       font-size="10.00"
       y="-400"
       x="28.571899">c1 :CliquePO</text>
    <polygon
       style="fill:none;stroke:#000000"
       id="polygon36"
       points="96.0719,-394 96.0719,-374 21.0719,-374 21.0719,-374 21.0719,-394 " />
    <text
       style="font-size:10px;text-anchor:start;font-family:Arial"
       id="text38"
       font-size="10.00"
       y="-382"
       x="55.071899"> </text>
  </g>
  <g
     class="node"
     id="node2"
     transform="translate(4,434)">
    <title
       id="title41">m2</title>
    <polygon
       style="fill:#00bfff;stroke:#00bfff"
       id="polygon43"
       points="96.0719,-322.5 96.0719,-285.5 20.0719,-285.5 20.0719,-285.5 20.0719,-322.5 " />
    <polygon
       style="fill:none;stroke:#000000"
       id="polygon45"
       points="96.0719,-322 96.0719,-305 20.0719,-305 20.0719,-305 20.0719,-322 " />
    <text
       style="font-size:10px;text-anchor:start;font-family:Arial"
       id="text47"
       font-size="10.00"
       y="-311.5"
       x="23.571899" />
    <text
       style="font-size:10px;text-anchor:start;font-family:Arial"
       id="text49"
       font-size="10.00"
       y="-311.5"
       x="27.571899">m2 :MoviePO</text>
    <polygon
       style="fill:none;stroke:#000000"
       id="polygon51"
       points="96.0719,-305 96.0719,-285 20.0719,-285 20.0719,-285 20.0719,-305 " />
    <text
       style="font-size:10px;text-anchor:start;font-family:Arial"
       id="text53"
       font-size="10.00"
       y="-293"
       x="54.571899"> </text>
  </g>
  <g
     class="edge"
     id="edge14"
     transform="translate(4,434)">
    <title
       id="title56">c1--m2</title>
    <path
       style="fill:none;stroke:#000000"
       id="path58"
       d="m 58.0719,-370.286 c 0,14.038 0,30.654 0,43.61" />
    <text
       style="font-size:10px;text-anchor:middle;font-family:Arial"
       id="text60"
       font-size="10.00"
       y="-333.23901"
       x="62.2981">commonMovies</text>
  </g>
  <g
     class="node"
     id="node7"
     transform="translate(4,434)">
    <title
       id="title63">m7</title>
    <polygon
       style="fill:#00bfff;stroke:#00bfff"
       id="polygon65"
       points="101.072,-129.5 101.072,-92.5 25.0719,-92.5 25.0719,-92.5 25.0719,-129.5 " />
    <polygon
       style="fill:none;stroke:#000000"
       id="polygon67"
       points="101.072,-129 101.072,-112 25.0719,-112 25.0719,-112 25.0719,-129 " />
    <text
       style="font-size:10px;text-anchor:start;font-family:Arial"
       id="text69"
       font-size="10.00"
       y="-118.5"
       x="28.571899" />
    <text
       style="font-size:10px;text-anchor:start;font-family:Arial"
       id="text71"
       font-size="10.00"
       y="-118.5"
       x="32.571899">m7 :MoviePO</text>
    <polygon
       style="fill:none;stroke:#000000"
       id="polygon73"
       points="101.072,-112 101.072,-92 25.0719,-92 25.0719,-92 25.0719,-112 " />
    <text
       style="font-size:10px;text-anchor:start;font-family:Arial"
       id="text75"
       font-size="10.00"
       y="-100"
       x="59.571899"> </text>
  </g>
  <g
     class="edge"
     id="edge18"
     transform="translate(4,434)">
    <title
       id="title78">c1--m7</title>
    <path
       style="fill:none;stroke:#000000"
       id="path80"
       d="m 26.1943,-370.182 c -9.2866,10.385 -18.24126,22.857 -23.12241,36.182 -6.04583,16.505 -1.51614,141.051 3,153 6.81161,18.023 20.39771,34.775 32.59741,47.258" />
    <text
       style="font-size:10px;text-anchor:middle;font-family:Arial"
       id="text82"
       font-size="10.00"
       y="-140.716"
       x="35.4697">commonMovies</text>
  </g>
  <g
     class="node"
     id="node11"
     transform="translate(4,434)">
    <title
       id="title85">p10</title>
    <polygon
       style="fill:#00bfff;stroke:#00bfff"
       id="polygon87"
       points="280.072,-222.5 280.072,-185.5 196.072,-185.5 196.072,-185.5 196.072,-222.5 " />
    <polygon
       style="fill:none;stroke:#000000"
       id="polygon89"
       points="280.072,-222 280.072,-205 196.072,-205 196.072,-205 196.072,-222 " />
    <text
       style="font-size:10px;text-anchor:start;font-family:Arial"
       id="text91"
       font-size="10.00"
       y="-211.5"
       x="199.57201" />
    <text
       style="font-size:10px;text-anchor:start;font-family:Arial"
       id="text93"
       font-size="10.00"
       y="-211.5"
       x="203.57201">p10 :PersonPO</text>
    <polygon
       style="fill:none;stroke:#000000"
       id="polygon95"
       points="280.072,-205 280.072,-185 196.072,-185 196.072,-185 196.072,-205 " />
    <text
       style="font-size:10px;text-anchor:start;font-family:Arial"
       id="text97"
       font-size="10.00"
       y="-193"
       x="234.57201"> </text>
  </g>
  <g
     class="edge"
     id="edge24"
     transform="translate(4,434)">
    <title
       id="title100">c1--p10</title>
    <path
       style="fill:none;stroke:#000000"
       id="path102"
       d="m 103.551,-393.696 c 37.906,6.969 90.13,22.996 118.521,59.696 24.026,31.059 22.784,79.492 19.522,107.333" />
    <text
       style="font-size:10px;text-anchor:middle;font-family:Arial"
       id="text104"
       font-size="10.00"
       y="-232.76401"
       x="246.702">persons</text>
  </g>
  <g
     class="node"
     id="node3"
     transform="translate(4,434)">
    <title
       id="title107">p3</title>
    <polygon
       style="fill:#00bfff;stroke:#00bfff"
       id="polygon109"
       points="102.572,-222.5 102.572,-185.5 23.5719,-185.5 23.5719,-185.5 23.5719,-222.5 " />
    <polygon
       style="fill:none;stroke:#000000"
       id="polygon111"
       points="103.072,-222 103.072,-205 24.0719,-205 24.0719,-205 24.0719,-222 " />
    <text
       style="font-size:10px;text-anchor:start;font-family:Arial"
       id="text113"
       font-size="10.00"
       y="-211.5"
       x="27.571899" />
    <text
       style="font-size:10px;text-anchor:start;font-family:Arial"
       id="text115"
       font-size="10.00"
       y="-211.5"
       x="31.571899">p3 :PersonPO</text>
    <polygon
       style="fill:none;stroke:#000000"
       id="polygon117"
       points="103.072,-205 103.072,-185 24.0719,-185 24.0719,-185 24.0719,-205 " />
    <text
       style="font-size:10px;text-anchor:start;font-family:Arial"
       id="text119"
       font-size="10.00"
       y="-193"
       x="60.071899"> </text>
  </g>
  <g
     class="edge"
     id="edge16"
     transform="translate(4,434)">
    <title
       id="title122">m2--p3</title>
    <path
       style="fill:none;stroke:#000000"
       id="path124"
       d="m 59.1815,-281.251 c 0.8286,16.241 1.956,38.337 2.7838,54.562" />
    <text
       style="font-size:10px;text-anchor:middle;font-family:Arial"
       id="text126"
       font-size="10.00"
       y="-233.455"
       x="65.724197">persons</text>
  </g>
  <g
     class="edge"
     id="edge20"
     transform="translate(4,434)">
    <title
       id="title129">p3--m7</title>
    <path
       style="fill:none;stroke:#000000"
       id="path131"
       d="m 63.0719,-181.434 c 0,14.401 0,33.274 0,47.708" />
    <text
       style="font-size:10px;text-anchor:middle;font-family:Arial"
       id="text133"
       font-size="10.00"
       y="-140.289"
       x="67.298103">movies</text>
  </g>
  <g
     class="node"
     id="node4"
     transform="translate(-36.934945,511.21819)">
    <title
       id="title136">g4</title>
    <text
       style="font-size:10px;text-anchor:middle;font-family:Arial"
       id="text138"
       font-size="10.00"
       y="-397.5"
       x="452.07199">lastName &lt; p3.name</text>
  </g>
  <g
     class="node"
     id="node9"
     transform="translate(-36.934945,511.21819)">
    <title
       id="title141">g8</title>
    <text
       style="font-size:10px;text-anchor:middle;font-family:Arial"
       id="text143"
       font-size="10.00"
       y="-301.5"
       x="452.07199">{c4.commonMovies.size() &gt;= 3}</text>
  </g>
  <g
     class="edge"
     id="edge6"
     transform="translate(-36.934945,511.21819)">
    <title
       id="title146">g4--g8</title>
    <path
       style="fill:none;stroke:#000000;stroke-dasharray:1, 5"
       id="path148"
       d="m 452.072,-381.759 c 0,16.961 0,42.704 0,59.627" />
  </g>
  <g
     class="node"
     id="node5"
     transform="translate(4,434)">
    <title
       id="title151">c5</title>
    <polygon
       style="fill:#00bfff;stroke:#00bfff"
       id="polygon153"
       points="205.572,-329.5 205.572,-278.5 130.572,-278.5 130.572,-278.5 130.572,-329.5 " />
    <text
       style="font-size:10px;text-anchor:start;fill:#008000;font-family:Arial"
       id="text155"
       font-size="10.00"
       y="-319.5"
       x="166.07201">«create»</text>
    <polygon
       style="fill:none;stroke:#008000"
       id="polygon157"
       points="206.072,-314 206.072,-298 131.072,-298 131.072,-298 131.072,-314 " />
    <text
       style="font-size:10px;text-anchor:start;font-family:Arial"
       id="text159"
       font-size="10.00"
       y="-304"
       x="134.57201" />
    <text
       style="font-size:10px;text-anchor:start;fill:#008000;font-family:Arial"
       id="text161"
       font-size="10.00"
       y="-304"
       x="138.57201">c4 :CliquePO</text>
    <polygon
       style="fill:none;stroke:#008000"
       id="polygon163"
       points="206.072,-298 206.072,-278 131.072,-278 131.072,-278 131.072,-298 " />
    <text
       style="font-size:10px;text-anchor:start;font-family:Arial"
       id="text165"
       font-size="10.00"
       y="-286"
       x="165.07201"> </text>
  </g>
  <g
     class="edge"
     id="edge28"
     transform="translate(4,434)">
    <title
       id="title168">c5--p3</title>
    <path
       style="fill:none;stroke:#008000"
       id="path170"
       d="m 137.419,-274.391 c -16.343,15.254 -36.125,33.717 -51.1734,47.762" />
    <text
       style="font-size:10px;text-anchor:middle;fill:#008000;font-family:Arial"
       id="text172"
       font-size="10.00"
       y="-227.22301"
       x="95.754799">persons</text>
  </g>
  <g
     class="edge"
     id="edge22"
     transform="translate(4,434)">
    <title
       id="title175">c5--m7</title>
    <path
       style="fill:none;stroke:#008000"
       id="path177"
       d="m 159.259,-274.261 c -8.434,25.463 -22.477,63.162 -40.187,93.261 -10.015,17.02 -24.0147,34.27 -35.511,47.265" />
    <text
       style="font-size:10px;text-anchor:middle;fill:#008000;font-family:Arial"
       id="text179"
       font-size="10.00"
       y="-135.274"
       x="92.708702">commonMovies</text>
  </g>
  <g
     class="edge"
     id="edge26"
     transform="translate(4,434)">
    <title
       id="title182">c5--p10</title>
    <path
       style="fill:none;stroke:#008000"
       id="path184"
       d="m 188.507,-274.391 c 10.896,15.254 24.083,33.717 34.116,47.762" />
    <text
       style="font-size:10px;text-anchor:middle;fill:#008000;font-family:Arial"
       id="text186"
       font-size="10.00"
       y="-233.96001"
       x="220.79401">persons</text>
  </g>
  <g
     class="node"
     id="node8"
     transform="translate(4,434)">
    <title
       id="title189">allMatches_m7</title>
    <text
       style="font-size:10px;text-anchor:middle;font-family:Arial"
       id="text191"
       font-size="10.00"
       y="-31.5"
       x="63.071899">allMatches</text>
  </g>
  <g
     class="edge"
     id="edge4"
     transform="translate(4,434)">
    <title
       id="title194">m7--allMatches_m7</title>
    <path
       style="fill:none;stroke:#000000;stroke-dasharray:1, 5"
       id="path196"
       d="m 63.0719,-88.3069 c 0,11.4213 0,25.237 0,35.9414" />
  </g>
  <g
     class="node"
     id="node13"
     transform="translate(-36.934945,511.21819)">
    <title
       id="title199">g11</title>
    <text
       style="font-size:10px;text-anchor:middle;font-family:Arial"
       id="text201"
       font-size="10.00"
       y="-201.5"
       x="452.07199">addToCliques(c4.commonMovies, c4.persons)</text>
  </g>
  <g
     class="edge"
     id="edge10"
     transform="translate(-36.934945,511.21819)">
    <title
       id="title204">g8--g11</title>
    <path
       style="fill:none;stroke:#000000;stroke-dasharray:1, 5"
       id="path206"
       d="m 452.072,-285.93 c 0,17.878 0,45.799 0,63.727" />
  </g>
  <g
     class="node"
     id="node12"
     transform="translate(4,434)">
    <title
       id="title209">allMatches_p10</title>
    <text
       style="font-size:10px;text-anchor:middle;font-family:Arial"
       id="text211"
       font-size="10.00"
       y="-108.5"
       x="238.07201">allMatches</text>
  </g>
  <g
     class="edge"
     id="edge8"
     transform="translate(4,434)">
    <title
       id="title214">p10--allMatches_p10</title>
    <path
       style="fill:none;stroke:#000000;stroke-dasharray:1, 5"
       id="path216"
       d="m 238.072,-181.434 c 0,15.978 0,37.46 0,52.278" />
  </g>
  <g
     class="node"
     id="node14"
     transform="translate(-55.541738,524.24295)">
    <title
       id="title219">g12</title>
    <text
       style="font-size:10px;text-anchor:middle;font-family:Arial"
       id="text221"
       font-size="10.00"
       y="-108.5"
       x="452.07199">lookForCliques(c4.commonMovies, wantedSize + 1, c4.persons)</text>
  </g>
  <g
     class="edge"
     id="edge12"
     transform="translate(-37.865284,514.93955)">
    <title
       id="title224">g11--g12</title>
    <path
       style="fill:none;stroke:#000000;stroke-dasharray:1, 5"
       id="path226"
       d="m 452.072,-185.884 c 0,16.27 0,40.6 0,56.844" />
  </g>
  <g
     class="node"
     id="node15"
     transform="translate(-288.12665,429.3483)">
    <title
       id="title229">allMatches</title>
    <text
       style="font-size:10px;text-anchor:middle;font-family:Arial"
       id="text231"
       font-size="10.00"
       y="-397.5"
       x="556.07202">allMatches</text>
  </g>
</svg>
