<svg xmlns="http://www.w3.org/2000/svg" xmlns:svg="http://www.w3.org/2000/svg" xmlns:xlink="http://www.w3.org/1999/xlink" class="Board" width="606" height="198" style="width: 606px; height: 198px;"><defs><filter id="drop-shadow"><feGaussianBlur in="SourceAlpha" result="blur-out" stdDeviation="2"/><feOffset in="blur-out" dx="2" dy="2"/><feBlend in="SourceGraphic" mode="normal"/></filter><linearGradient id="reflect" x1="0%" x2="0%" y1="50%" y2="0%" spreadMethod="reflect"><stop offset="0%" style="stop-color: rgb(170, 170, 170);"/><stop offset="100%" style="stop-color: rgb(238, 238, 238);"/></linearGradient><linearGradient id="classelement" x1="0%" x2="100%" y1="100%" y2="0%"><stop offset="0" style="stop-color: rgb(255, 255, 255);"/><stop offset="1" style="stop-color: rgb(211, 211, 211);"/></linearGradient></defs><g><rect width="156.9375" height="90" x="10" y="50" fill="lightblue" class="draggable" stroke="#000"/><text x="20" y="70" width="136.9375">c1 : ClassModelPO</text><line x1="10" y1="80" x2="166.9375" y2="80" stroke="#000"/><text width="156.9375" x="20" y="100">&lt;&lt; start &gt;&gt;</text><text width="156.9375" x="20" y="120">&lt;&lt; bound&gt;&gt;</text></g><g><rect width="113.359375" height="65" x="255" y="123" fill="lightblue" class="draggable" stroke="#000"/><text x="265" y="143" width="93.359375">c3 : ClassPO</text><line x1="255" y1="153" x2="368.359375" y2="153" stroke="#000"/><text width="113.359375" x="265" y="173">&lt;&lt; create&gt;&gt;</text></g><g><rect width="124.9375" height="60" x="471" y="66" fill="lightblue" class="draggable" stroke="#000"/><text x="481" y="86" width="104.9375">f2 : FeaturePO</text><line x1="471" y1="96" x2="595.9375" y2="96" stroke="#000"/></g><line x1="167" y1="95" x2="471" y2="96" stroke="#000"/><text x="187" y="95" id="c1 : ClassModelPO" class="draggable" transform="rotate(0.19736770917323238,187,95)" fill="#CCC"> </text><text x="393" y="96" id="f2 : FeaturePO" class="draggable" transform="rotate(0.19736770917323238,393,96)" fill="#CCC">features</text><line x1="167" y1="131" x2="255" y2="140" stroke="#000"/><text x="202" y="126" id="c1 : ClassModelPO" class="draggable" transform="rotate(6.1151020488524335,202,126)" fill="#CCC"> </text><text x="182" y="120" id="c3 : ClassPO" class="draggable" transform="rotate(6.1151020488524335,182,120)" fill="#CCC">classes</text><line x1="368" y1="141" x2="471" y2="126" stroke="#000"/><text x="388" y="135" id="c3 : ClassPO" class="draggable" transform="rotate(-8.676866353196424,388,135)" fill="#CCC"> </text><text x="349" y="146" id="f2 : FeaturePO" class="draggable" transform="rotate(-8.676866353196424,349,146)" fill="#CCC">encapsulates</text></svg>